<svg xmlns="http://www.w3.org/2000/svg" width="60.5017" height="75.47448" viewBox="0 0 60.5017 75.47448"><title>evaqua_farms_logo</title><path d="M27.673,41.55107c-.01431-.08491-.0282-.16893-.04832-.33911l-.15823-1.31514-.08287-.65823c-.02059-.17-.02554-.25572-.03091-.34145-.0045-.08016-.00947-.16033-.02832-.31957-.02059-.17022-.0273-.25506-.03358-.34083-.0063-.08013-.0126-.16121-.03144-.32092-.0206-.16842-.02778-.253-.035-.33767-.00673-.08151-.01389-.16282-.03319-.3252-.01931-.15967-.03409-.23855-.04886-.31787-.01569-.08445-.03134-.16914-.05189-.33955-.02017-.16751-.02779-.25173-.035-.3359-.00716-.08131-.01436-.16259-.03366-.32473l-.08111-.65893c-.01927-.16038-.03361-.23945-.048-.319-.01479-.084-.03-.16846-.05013-.33774l-.08334-.65894c-.021-.17332-.02414-.26037-.02774-.34813-.0027-.07925-.00591-.15874-.0243-.31575l-.08066-.66136c-.01931-.15948-.03409-.23836-.04933-.31744-.01608-.08445-.0322-.16961-.05279-.34022-.02014-.16575-.02776-.24973-.035-.333-.00763-.08241-.01482-.16373-.03454-.3281l-.08063-.65979c-.01974-.16081-.03321-.24059-.04708-.32033-.01475-.08445-.02953-.16913-.04966-.33911-.021-.17308-.02461-.25994-.02865-.34724-.00317-.07949-.00681-.15941-.02519-.31689-.01931-.15971-.03409-.23879-.04843-.3181-.01565-.08469-.03086-.16961-.05145-.34022a3.1901,3.1901,0,0,1-.02594-.349,3.00932,3.00932,0,0,0-.02344-.31578c-.02017-.16771-.065-.4981-.08423-.66114a2.78906,2.78906,0,0,0-.05293-.31056,3.11631,3.11631,0,0,1-.05812-.34672,2.82446,2.82446,0,0,1-.02412-.35149,2.84186,2.84186,0,0,0-.02168-.3144c-.01928-.15858-.035-.23723-.0502-.31588-.017-.08536-.03352-.17048-.05411-.3427-.0206-.16838-.02779-.25283-.0354-.33724-.00716-.0817-.01479-.16345-.03408-.32606-.02059-.17-.0264-.25549-.03225-.341-.005-.0806-.01037-.1612-.02964-.32157-.01889-.15771-.03547-.23547-.05158-.31369a3.39512,3.39512,0,0,1-.05634-.34291c-.02059-.17132-.026-.25752-.0309-.34392-.0045-.08059-.009-.16123-.02831-.32137-.02014-.16751-.02689-.25235-.0336-.33656-.0063-.08194-.013-.16321-.03232-.32629l-.08062-.662c-.01932-.159-.03409-.23836-.0489-.3172-.01607-.08559-.03219-.17071-.0523-.34312,0,0-.06364-.491-.0838-.66161-.01974-.16081-.03361-.24083-.04751-.3208-.01475-.08488-.03-.1698-.05008-.34064a2.45465,2.45465,0,0,1-.02056-.3575,2.17314,2.17314,0,0,0-.01765-.31215c-.02013-.16775-.0318-.24995-.04341-.33348-.01123-.0822-.02285-.166-.04256-.33081a.45089.45089,0,0,0-.46423-.3791l-.0058,0a1.957,1.957,0,0,0-.2815.04951,2.29331,2.29331,0,0,1-.32661.05752,3.08293,3.08293,0,0,1-.32514.02139,2.75811,2.75811,0,0,0-.29162.01952c-.15723.01752-.23584.02407-.31488.03061-.07551.00629-.15141.01261-.30108.02931a1.72878,1.72878,0,0,0-.27971.05128,2.03648,2.03648,0,0,1-.33023.06087.36922.36922,0,0,0-.34276.33493l-.08537.65113c-.02135.16507-.03469.24719-.0476.32946-.0129.07941-.02579.15882-.04668.3181-.02086.16041-.02976.24094-.03863.32124-.00934.08233-.01869.16442-.0396.32817-.02135.16464-.03379.24672-.0467.3288-.012.07989-.02446.15973-.04536.3201-.02042.15885-.02752.23872-.03462.31859-.00755.08347-.01509.16691-.03692.33312a2.74774,2.74774,0,0,1-.0633.34165,2.487,2.487,0,0,0-.05642.30508c-.02041.15661-.02484.2356-.02923.31462-.00536.08568-.01025.17117-.03249.3407-.02141.16774-.03341.24958-.04543.33347l-.13291.96746c-.02045.15748-.02618.23673-.03194.31613-.00669.08438-.01291.16872-.0347.336-.02184.1684-.03785.25184-.0539.33523-.01512.07783-.03024.15566-.05065.31248-.02042.15795-.02618.23759-.03237.317-.00622.08434-.01291.16868-.0347.33622a2.88929,2.88929,0,0,1-.06244.343,2.70054,2.70054,0,0,0-.05594.30442c-.02045.15771-.02665.23759-.03328.317-.00712.08481-.01381.16915-.036.33755-.0214.166-.03474.24872-.04855.33126-.0129.07961-.02622.159-.04712.31876a2.77256,2.77256,0,0,0-.02474.31014,3.04876,3.04876,0,0,1-.028.34543,2.40669,2.40669,0,0,1-.06735.345,2.08875,2.08875,0,0,0-.05906.30083,2.39411,2.39411,0,0,0-.02206.30815,2.61455,2.61455,0,0,1-.0254.34944,2.54415,2.54415,0,0,1-.06511.34387,2.25,2.25,0,0,0-.05774.30354c-.0209.16061-.02933.24114-.03777.32167-.00845.083-.01736.166-.03915.33107-.02.15752-.02661.23739-.03284.3166-.00665.08481-.0133.16935-.03557.33779l-.08495.65317c-.02042.159-.02709.23915-.03419.319-.00712.08414-.0142.168-.036.33536a2.51671,2.51671,0,0,1-.06645.34567,2.19445,2.19445,0,0,0-.05863.30193,2.86417,2.86417,0,0,0-.02431.31018,2.831,2.831,0,0,1-.02715.347c-.02091.16308-.03382.24539-.04583.3268-.01247.08141-.0249.16192-.04625.32566-.02135.16441-.03516.247-.04854.32879-.01333.08031-.02623.15968-.04756.321a2.7162,2.7162,0,0,0-.02387.30924,2.817,2.817,0,0,1-.02715.34676c-.02136.16574-.03427.24852-.04761.331-.01247.08031-.0249.16059-.04623.32143-.02184.16911-.03833.253-.05481.33679-.01555.07783-.03114.15566-.05156.31318l-.08941.65268-.08448.65431a2.6462,2.6462,0,0,0-.02431.31061,3.04719,3.04719,0,0,1-.02762.347c-.0218.16731-.03561.25051-.04986.33372-.01337.0796-.02712.15925-.048.31939a2.93258,2.93258,0,0,1-.06241.34393,2.73632,2.73632,0,0,0-.056.30775c-.02042.15842-.02528.23783-.03014.31775-.00489.08545-.01025.17113-.03206.3409a.43883.43883,0,0,0,.08136.3397.452.452,0,0,0,.32609.14246l1.57144.00713a.409.409,0,0,0,.38713-.36771c.02027-.12914.03443-.19315.049-.25691.01279-.05821.026-.11618.04446-.23393a1.012,1.012,0,0,0,.01244-.16959.65122.65122,0,0,1,.10455-.37832,1.00681,1.00681,0,0,1,.30313-.35562,1.90747,1.90747,0,0,0,.17664-.15271c.12113-.11838.18524-.17343.24983-.22868.05963-.05128.11972-.10255.23188-.21247.11168-.10906.16378-.1675.21584-.226.05612-.06336.11224-.12645.23294-.24464a3.292,3.292,0,0,1,.25606-.22885,2.95247,2.95247,0,0,0,.23181-.20737c1.56452-1.53034,1.62413-2.5147,1.95177.47222.00984.08619.01968.17265.04473.34418.025.17091.04023.25693.05544.342.01562.08958.03125.17807.0576.35769.02506.17111.0407.25712.05591.34247.01562.08958.03168.17851.058.35832.02635.17895.03617.26874.04646.35873.00937.08665.01921.17331.04468.34579a.41843.41843,0,0,0,.41213.3518c.19374.001.29063-.00146.38752-.00388.09959-.00264.19914-.005.39826-.00406.20315.001.30488.00911.40619.01722.095.00737.18968.015.37939.016a.4417.4417,0,0,0,.32129-.14576.42675.42675,0,0,0,.08422-.33308C27.69944,41.71059,27.686,41.63038,27.673,41.55107Zm-4.53568-5.89572c-1.96363,1.92038-1.30406,1.11081-1.21188-.76655.00446-.08478.00888-.1698.02492-.3387l.12571-1.31886.05955-.66043c.016-.17157.02937-.25635.04276-.34155.01242-.07875.02489-.15812.04-.31657.016-.16886.028-.25322.03961-.3373.0111-.08032.02223-.1606.03777-.32171.016-.16824.02711-.25208.03827-.33574.0102-.08076.02087-.16151.0364-.323.01509-.1584.01725-.23854.01988-.31823.00223-.0866.00489-.17276.02138-.34476.016-.16757.02668-.25122.03736-.33488.01067-.08052.0209-.16108.03644-.32262l.06084-.65932c.01553-.16.01863-.24053.0217-.32108.00309-.08549.00665-.17118.02266-.34142l.05865-.66047c.01649-.17266.03208-.25833.04724-.344.01422-.07827.028-.15658.04306-.31432l.06222-.66175c.01509-.15888.01725-.23877.01945-.31867.00219-.0864.00442-.17253.02091-.34413.2353-2.47409.52349-2.8303.73268-.01757.013.16995.01481.25457.01709.33962.00184.07948.00368.15963.01539.31794.01252.16928.0139.25433.01572.33937.00094.07991.00234.15963.01406.31883.01172.15787.02293.23674.03371.31536.01208.08467.02369.1691.03625.33924s.01347.25566.01438.34117c.00051.07971.001.15915.01273.31726.01172.15768.02293.23583.03457.31427.01208.08463.02416.1693.03672.33924a3.28155,3.28155,0,0,1,.01036.34515,3.01508,3.01508,0,0,0,.00872.31234c.01214.16077.0211.241.03011.32114.00938.08375.0188.16727.03091.33475l.04855.65673c.01254.167.01616.251.01931.33473.00364.08083.0068.16165.0185.32285a2.33038,2.33038,0,0,0,.04088.30713,2.731,2.731,0,0,1,.04561.34826c.01252.17014.01347.25566.0139.34136.00051.07924.001.15872.01273.31683.013.16948.01614.25363.01929.33873.00274.08015.0059.16094.01761.32085C24.25356,34.94877,24.67858,34.1476,23.13732,35.65536ZM8.71689,22.02063c-.00986-.08331-.01927-.16528-.043-.33148a.38571.38571,0,0,1,.253-.43023c.131-.04824.19723-.07.26341-.092.06931-.02265.13862-.04552.275-.096l1.06983-.39047a.597.597,0,0,1,.2078-.04116.28635.28635,0,0,1,.14893.03779.43359.43359,0,0,1,.19533.31326c.02021.15591.02384.23495.02746.31354.00448.08663.00852.173.03088.34459a2.66717,2.66717,0,0,0,.06437.34408,2.41172,2.41172,0,0,1,.05653.30476c.02063.161.02916.24189.03769.32274.009.08286.01748.16572.039.33123.02106.1644.03315.24638.04525.32814.01165.08064.02331.16106.04439.32233a2.14933,2.14933,0,0,1,.0208.30659,2.4785,2.4785,0,0,0,.02371.3508c.02149.16752.03671.25064.05192.334.01434.07842.02824.15707.04888.31543l.08785.64979c.02193.16887.038.25265.05414.33622.01524.078.03048.156.05068.31321l.08518.64933c.0202.15725.0274.2372.03415.31625.00762.08419.01524.16772.03673.335.02021.15636.02562.23585.031.31467.00583.0853.01166.17015.03359.33924.02192.17087.03981.25512.05814.33959a3.10186,3.10186,0,0,1,.05294.30764c.02065.15814.0265.23764.0328.31736.00628.08419.013.1686.0345.33612.02064.15971.02827.2401.03636.3205.00807.08286.01659.16571.03765.33078.02193.16976.03892.25355.05637.33735.01569.07731.03138.15485.05158.311a2.68505,2.68505,0,0,1,.02436.30839,2.90632,2.90632,0,0,0,.0273.34613,3.09878,3.09878,0,0,0,.05993.3396,2.89733,2.89733,0,0,1,.05384.30631l.08874.65a2.96264,2.96264,0,0,1,.02614.31108,3.43223,3.43223,0,0,0,.0291.34324c.02149.16775.0376.25109.05325.33443.01479.07775.02959.15573.04979.31254.33255,2.6078.43368,3.23084.85238-.02412.02042-.15615.03687-.23375.05333-.31091.01783-.085.03566-.16947.0575-.34125l.08138-.65676c.02227-.17.0285-.255.03517-.34046.00575-.07966.012-.15977.03193-.31771l.08361-.65474c.02135-.16307.03424-.24337.04715-.32433.01335-.08208.02671-.16528.04807-.33013.02182-.16842.0276-.25367.03338-.33846.00531-.07989.01061-.15933.031-.31794.02134-.16218.03424-.2418.04758-.32254.01335-.08208.02716-.16483.04851-.32968.02089-.16039.03467-.24.04846-.31964.01425-.08341.02851-.16683.04987-.33436.02088-.15838.03555-.23711.05067-.31561.01559-.08385.03164-.16771.05346-.33658l.08183-.65565.16989-1.30992c.02181-.16776.02893-.25187.03649-.336.00665-.08033.01374-.16065.03418-.32038.02227-.16887.028-.25433.03383-.33958.00531-.07966.01061-.15911.031-.317l.08227-.655c.02041-.15526.03731-.23241.05377-.30934a3.45407,3.45407,0,0,0,.05884-.34191c.02226-.168.03027-.25165.03827-.336.00754-.07965.01508-.1602.03551-.319.0218-.16463.03114-.24718.04048-.32972.00889-.08121.01822-.16219.03911-.32415.02089-.16173.03423-.24136.048-.32187.0138-.08208.02761-.165.049-.33035.02135-.16463.0298-.24808.0378-.33085.00844-.08166.01643-.16242.03733-.32505.02135-.16441.0298-.24763.03824-.33.008-.08166.01643-.16242.03733-.32527.02089-.16039.03423-.24.04712-.31987.0138-.08275.02761-.16572.049-.33191a.39639.39639,0,0,1,.29581-.32288,2.09028,2.09028,0,0,0,.28849-.10817,1.78417,1.78417,0,0,1,.24511-.09209c.13235-.04042.19985-.05839.26646-.07614.07063-.01885.14082-.0377.28032-.08031l.54236-.16517a.461.461,0,0,1,.13671-.02008.41282.41282,0,0,1,.26428.09261.426.426,0,0,1,.12043.383c-.02316.168-.02938.253-.0356.33778-.0053.07877-.011.15754-.03281.31369-.02176.15749-.03733.23509-.05334.31292-.01648.08273-.03341.16591-.05656.33277-.02315.16775-.02938.2521-.0356.33667-.00575.07877-.01194.15754-.03325.31391-.02176.15726-.03688.23487-.052.31292-.016.08207-.03207.16458-.05521.3301-.02177.15883-.03644.2371-.05112.31583-.01514.08185-.03073.16436-.05342.329a2.68623,2.68623,0,0,0-.02806.34653,2.29406,2.29406,0,0,1-.02428.305l-.265,1.93626a2.5694,2.5694,0,0,1-.0573.30151,2.89861,2.89861,0,0,0-.06463.33809c-.02315.166-.032.24829-.04138.3315-.00887.079-.01731.15863-.03907.31567a3.21613,3.21613,0,0,0-.032.34048,3.05106,3.05106,0,0,1-.02921.30857c-.02177.15838-.03555.23689-.04978.31539-.01425.08208-.02894.16415-.05163.329-.02176.15615-.03687.23375-.052.31114-.016.08251-.03252.165-.05522.33144L16.50313,29.537c-.02269.16329-.032.24516-.04136.327-.00888.07987-.0182.15951-.04.31856-.02315.166-.03292.24739-.04316.33083-.00976.07853-.01909.15839-.04085.315-.02222.15972-.03467.23935-.04712.319-.01246.08141-.02536.1626-.0476.32545-.02177.1586-.03511.23778-.048.31674-.01335.08141-.0267.16282-.04939.32633-.02269.16373-.03158.24606-.04.32816-.00888.07942-.01731.15885-.03907.31723l-.09025.644c-.02222.15994-.03467.23957-.04712.3192-.0129.08119-.02581.16238-.048.32522-.02316.16886-.0276.25411-.03249.33958a3.05947,3.05947,0,0,1-.02921.3088l-.18138,1.2862c-.02176.15615-.03643.23376-.05065.31137-.01559.08207-.03117.16414-.05387.32943-.02315.16686-.02981.25031-.03693.3342-.00664.07809-.01283.15664-.03414.31167-.02268.16306-.03157.24494-.04091.32682-.00888.07965-.0182.15929-.04.31812a3.0939,3.0939,0,0,1-.05553.30554c-.01872.08362-.03744.167-.0606.33587-.0227.16574-.032.24762-.04093.33084-.00843.07853-.0173.15818-.03862.31478-.02176.15749-.03555.236-.04888.31428-.01424.08163-.028.163-.05073.32677a3.092,3.092,0,0,0-.03026.33982,2.66759,2.66759,0,0,1-.02742.3068,2.06347,2.06347,0,0,1-.0595.2957,2.37831,2.37831,0,0,0-.06866.34074,2.52621,2.52621,0,0,0-.02671.34542,2.047,2.047,0,0,1-.02292.30124.4147.4147,0,0,1-.42845.33338c-.16518-.00082-.2478.0048-.33.01064-.07592.0052-.15184.01063-.30363.00988l-.633-.00693c-.15179-.00075-.2281-.00627-.304-.01155-.08212-.006-.16379-.01175-.32807-.01256-.16339-.00081-.24512.0037-.32684.00842-.07636.00431-.15228.00862-.30407.00787a.40438.40438,0,0,1-.39692-.35444c-.02243-.159-.03051-.23922-.0386-.3194-.00852-.0833-.01748-.16683-.04076-.3328a3.0269,3.0269,0,0,0-.06484-.33962,2.84177,2.84177,0,0,1-.0583-.30655l-.09232-.64981-.087-.64867c-.02243-.15748-.02829-.23631-.03415-.31581-.00673-.08419-.013-.169-.03673-.33613-.02242-.15994-.03185-.24012-.04082-.3203-.00986-.08242-.01927-.16483-.04257-.32924a3.00746,3.00746,0,0,0-.06484-.339,2.69035,2.69035,0,0,1-.05831-.30432c-.02243-.159-.031-.239-.03949-.31873-.009-.08308-.01793-.16594-.04122-.331-.022-.157-.03141-.23722-.04085-.31606-.00985-.08353-.01972-.16551-.04345-.3317a3.14275,3.14275,0,0,0-.0644-.33828,2.67111,2.67111,0,0,1-.05832-.30365,2.29094,2.29094,0,0,1-.02483-.30527,2.47793,2.47793,0,0,0-.02819-.34814c-.02329-.16575-.0385-.248-.05372-.33041-.01434-.07865-.02913-.15707-.05156-.31545l-.091-.648c-.02329-.16508-.039-.24752-.05462-.32952-.01479-.07865-.02958-.15685-.052-.31523-.02286-.1624-.03629-.24416-.04973-.325-.01344-.08065-.02644-.16018-.0493-.32169a2.4374,2.4374,0,0,1-.02572-.30617,2.66416,2.66416,0,0,0-.02953-.34659,2.83937,2.83937,0,0,0-.06662-.33963,2.397,2.397,0,0,1-.05967-.30187,2.2637,2.2637,0,0,1-.02438-.3046,2.39879,2.39879,0,0,0-.02774-.34859,3.19728,3.19728,0,0,0-.06351-.33716,2.87936,2.87936,0,0,1-.05742-.30565c-.02242-.16083-.0314-.24057-.03993-.321-.009-.08174-.01794-.16438-.04079-.32722-.02329-.16463-.03851-.24685-.05373-.3284-.01479-.07887-.02958-.15685-.052-.31545a2.68039,2.68039,0,0,1-.02794-.30774,2.985,2.985,0,0,0-.03133-.34369c-.02328-.16642-.03939-.24909-.0555-.33154-.01524-.0782-.03-.15618-.05247-.31344-.022-.15636-.0283-.23519-.03461-.3138-.00717-.08441-.0139-.1686-.03762-.33569-.02329-.16485-.0394-.2473-.05507-.3293-.01568-.07821-.03048-.156-.05291-.31389-.02329-.16418-.17307-1.29175-.17307-1.29175-.02372-.16753-.04117-.25044-.05862-.33334-.01614-.07687-.03272-.15374-.05472-.30921a2.51926,2.51926,0,0,1-.027-.30729,2.83429,2.83429,0,0,0-.03044-.34347c-.02329-.16552-.03806-.24774-.05283-.33-.01434-.07865-.02868-.15751-.05111-.31589C8.73575,22.17944,8.72632,22.09948,8.71689,22.02063Zm51.669,23.56776a1.22337,1.22337,0,0,0-.46808-.401,1.11017,1.11017,0,0,0-.5792-.15265,2.45069,2.45069,0,0,1-.34812-.02293,2.16189,2.16189,0,0,0-.303-.02,1.49981,1.49981,0,0,0-.29388.02378,1.78958,1.78958,0,0,1-.35551.0288,1.49122,1.49122,0,0,1-.36366-.04154,1.11609,1.11609,0,0,0-.28509-.03288c-.16384-.00081-.24554-.00255-.32768-.00429-.08037-.002-.1607-.0037-.32187-.0045a1.68491,1.68491,0,0,0-.29743.02129,1.98785,1.98785,0,0,1-.35282.02525,1.50743,1.50743,0,0,1-.36453-.04107,1.14572,1.14572,0,0,0-.28647-.03246,1.17811,1.17811,0,0,0-.28853.02914,1.53157,1.53157,0,0,1-.36448.03683,1.204,1.204,0,0,1-.3752-.05477.85747.85747,0,0,0-.27573-.04044c-.15891-.00079-.2384.00215-.31788.00489-.08349.00292-.16654.00588-.33305.005a1.31835,1.31835,0,0,0-.29079.02623,1.6794,1.6794,0,0,1-.36.03239,1.79055,1.79055,0,0,1-.35563-.03237,1.48821,1.48821,0,0,0-.29453-.02689.85543.85543,0,0,0-.27612.0377,1.21309,1.21309,0,0,1-.37525.05057,1.31384,1.31384,0,0,1-.37076-.0489.95853.95853,0,0,0-.2806-.03737,1.09292,1.09292,0,0,0-.28635.031,1.46249,1.46249,0,0,1-.36673.03925,1.59349,1.59349,0,0,1-.36231-.03859,1.21521,1.21521,0,0,0-.28914-.03114c-.15895-.00079-.23844.00215-.31792.00489-.08349.003-.167.00587-.33352.005a1.39579,1.39579,0,0,0-.293.02555,1.73241,1.73241,0,0,1-.35865.03106,2.93124,2.93124,0,0,1-.34453-.01915,2.6264,2.6264,0,0,0-.308-.01712,1.86357,1.86357,0,0,0-.301.01971,2.15168,2.15168,0,0,1-.35191.023,2.21771,2.21771,0,0,1-.35081-.02584,1.8993,1.8993,0,0,0-.30078-.02226,2.32449,2.32449,0,0,1-.34987-.0245,2.01379,2.01379,0,0,0-.30259-.02113,2.18812,2.18812,0,0,0-.30458.01679,2.4979,2.4979,0,0,1-.34876.01924,1.824,1.824,0,0,0-.30056.01995,2.14452,2.14452,0,0,1-.35191.02326,3.01288,3.01288,0,0,1-.34457-.01868,2.71288,2.71288,0,0,0-.30841-.0167c-.16071-.0008-.24063.00128-.321.00354-.08305.00225-.16606.00431-.33214.00349a2.51024,2.51024,0,0,1-.34859-.02269,2.18834,2.18834,0,0,0-.30479-.01985c-.17011-.00084-.25535-.0084-.34059-.016-.07764-.00685-.15528-.0137-.31066-.01447l-.65176-.0057c-.16831-.00083-.25266-.00572-.33658-.0106-.07945-.00486-.15843-.00949-.31691-.01027a.71429.71429,0,0,0-.269.04354,1.06691,1.06691,0,0,1-.38428.06146,1.54156,1.54156,0,0,1-.36453-.04017,1.18216,1.18216,0,0,0-.2887-.032l-.65449-.00144c-.15938-.00079-.2393.00214-.31922.00512-.08349.00315-.167.0063-.334.00548a2.71871,2.71871,0,0,1-.34723-.02069,2.46658,2.46658,0,0,0-.30754-.01826l-.65624-.00349c-.16608-.00082-.24911-.00323-.33214-.00588-.0808-.0024-.162-.00484-.32363-.00564a.96015.96015,0,0,1-.864-.79472c.001-.19931.00372-.29887.00644-.39864.00272-.09753.005-.19529.006-.3906l.00048-.09621a2.1199,2.1199,0,0,1,.09466-.72253l.025-.09832.0966-.031a1.01124,1.01124,0,0,0,.27265-.15242,1.89767,1.89767,0,0,1,.236-.14818,3.8986,3.8986,0,0,0,.54441-.31559,3.14325,3.14325,0,0,0,.383-.3508l.0772-.07819a2.062,2.062,0,0,1,.23445-.19439,1.15613,1.15613,0,0,0,.25157-.22554,1.915,1.915,0,0,0,.18209-.352c.03255-.075.06548-.14989.102-.22181l.06177-.12067a3.01882,3.01882,0,0,0,.20718-.45638c.02129-.06616.04529-.13259.06972-.1992a2.26471,2.26471,0,0,0,.1235-.41436,1.056,1.056,0,0,0-.0234-.324,1.9054,1.9054,0,0,1-.03458-.32,1.40526,1.40526,0,0,1,.04334-.36232,1.08987,1.08987,0,0,0,.03306-.28176,1.88526,1.88526,0,0,0-.01859-.29789,2.165,2.165,0,0,1-.02238-.34744,1.58339,1.58339,0,0,1,.03791-.35874,1.24685,1.24685,0,0,0,.03-.28691A2.51285,2.51285,0,0,0,38.0022,36.19a2.82317,2.82317,0,0,1-.01617-.34228,2.16238,2.16238,0,0,1,.0263-.34787,1.87061,1.87061,0,0,0,.022-.29765c.00077-.15448-.00465-.23175-.00964-.309-.00628-.08417-.01214-.16814-.0113-.33645a1.32749,1.32749,0,0,0-.02576-.28918,1.688,1.688,0,0,1-.03174-.35689,1.26517,1.26517,0,0,1,.0505-.36938.91981.91981,0,0,0,.03754-.27684,1.56715,1.56715,0,0,0-.02221-.29387,1.88123,1.88123,0,0,1-.02729-.35283,1.54544,1.54544,0,0,0-.02265-.293,1.79984,1.79984,0,0,1-.02815-.35351,1.127,1.127,0,0,1,.05943-.37627.76962.76962,0,0,0,.04245-.26968,1.78334,1.78334,0,0,0-.02-.297,2.05194,2.05194,0,0,1-.02417-.35035,1.69609,1.69609,0,0,0-.02087-.29563,1.9881,1.9881,0,0,1-.0255-.35106,1.84493,1.84493,0,0,1,.03122-.35341,1.55431,1.55431,0,0,0,.0256-.29363c.00082-.16451.00389-.24667.007-.329.00263-.07946.00526-.15892.006-.31787a1.37387,1.37387,0,0,0-.02533-.29028,1.69325,1.69325,0,0,1-.03173-.35732,1.1234,1.1234,0,0,1,.05947-.37607.76952.76952,0,0,0,.0424-.26921.74807.74807,0,0,0-.04064-.26829,1.22785,1.22785,0,0,1,.00466-.75714.73614.73614,0,0,0,.04416-.26811.99222.99222,0,0,0-.033-.27942,1.32725,1.32725,0,0,1-.04371-.36761c.00084-.16988.00887-.25468.01642-.33945a3.08023,3.08023,0,0,0,.0145-.308c.00077-.15558-.00421-.23351-.00962-.31144-.00538-.08417-.01123-.16857-.0104-.33711a1.49233,1.49233,0,0,1,.0411-.36186,1.16834,1.16834,0,0,0,.03175-.2851c.00078-.15648-.00374-.23464-.00825-.31281-.005-.08416-.01034-.16813-.0095-.33621a1.82234,1.82234,0,0,0-.01952-.29966,2.19778,2.19778,0,0,1-.02279-.35058,2.348,2.348,0,0,1,.02406-.34811,2.0245,2.0245,0,0,0,.02066-.30169,4.419,4.419,0,0,0-.03843-.61984,4.34367,4.34367,0,0,0-.11933-.60955,1.512,1.512,0,0,0-.148-.31526,2.81728,2.81728,0,0,1-.141-.27592,4.01194,4.01194,0,0,0-.25549-.51734,4.254,4.254,0,0,0-.35555-.50024,3.15125,3.15125,0,0,0-.34878-.339l-.16-.1423a3.35941,3.35941,0,0,0-.40554-.3299,3.89906,3.89906,0,0,0-.5302-.30622,3.62715,3.62715,0,0,0-1.18257-.28379c-.16377-.01664-.32218-.03017-.48065-.031-.04511-.00022-.09022.00069-.13486.0027a4.00968,4.00968,0,0,0-.61329.0675c-.07194.01457-.14477.02581-.21717.03709a2.05312,2.05312,0,0,0-.39282.086l-.15161.05372a2.8137,2.8137,0,0,0-.43172.17687,1.47764,1.47764,0,0,0-.2779.22364c-.06681.06261-.13366.12478-.204.17934a3.4575,3.4575,0,0,0-.38579.36662l-.05878.062a2.37305,2.37305,0,0,1-.21656.19064,1.27063,1.27063,0,0,0-.24539.23407,4.22459,4.22459,0,0,0-.31788.54154,4.17842,4.17842,0,0,0-.239.5794,4.25369,4.25369,0,0,0-.13965.61163,1.14181,1.14181,0,0,0,.01712.32441,2.14707,2.14707,0,0,1,.02707.3015,2.43815,2.43815,0,0,1-.02316.34788,2.146,2.146,0,0,0-.01981.30369,2.14206,2.14206,0,0,1-.02675.35147,1.845,1.845,0,0,0-.02246.30078,1.60687,1.60687,0,0,0,.02219.29787,1.92359,1.92359,0,0,1,.0268.35573,1.879,1.879,0,0,1-.0308.35592,1.65339,1.65339,0,0,0-.02511.29787,1.57472,1.57472,0,0,0,.02306.2963,1.82592,1.82592,0,0,1,.0286.35711,1.48689,1.48689,0,0,1-.042.36519,1.13194,1.13194,0,0,0-.0327.28713,2.87358,2.87358,0,0,0,.01277.30922,3.14071,3.14071,0,0,1,.01479.34384l-.00414.654c-.00085.17078-.0084.256-.01553.34145-.00662.07811-.01281.15622-.01358.31246a.86447.86447,0,0,0,.03746.27741,1.21932,1.21932,0,0,1,.0508.37639,1.88018,1.88018,0,0,1-.03076.35568,1.64921,1.64921,0,0,0-.02515.29787,3.17685,3.17685,0,0,1-.01777.34391,3.05669,3.05669,0,0,0-.01541.31042c-.00078.15671.00467.23531.00961.31368.00628.08507.01213.17014.01128.34025-.00078.15648.00464.23484.01048.313.00628.0855.013.171.01214.34179a3.15621,3.15621,0,0,1-.01821.34438,2.748,2.748,0,0,0-.01627.30975c-.00079.15981.00195.23953.00512.31945.00315.08392.00677.16788.00594.33552a3.10173,3.10173,0,0,0,.01182.31055,3.31888,3.31888,0,0,1,.01351.3425,1.51353,1.51353,0,0,1-.04155.36519,1.13265,1.13265,0,0,0-.0327.28737c-.0008.16228.00013.24332.0011.32433.00092.08285.00227.16566.00145.33107a1.59715,1.59715,0,0,0,.02266.29787,1.92348,1.92348,0,0,1,.02723.3564,2.39731,2.39731,0,0,0,.01544.30747,2.75975,2.75975,0,0,1,.01748.34765l-.00059.65582-.00548.65466c-.0008.16161.0006.24266.00243.32348.00182.08325.00364.1663.00282.33284a2.10121,2.10121,0,0,1-.02814.35546,1.77309,1.77309,0,0,0-.02379.30168,2.78323,2.78323,0,0,1-.0205.34813,2.45932,2.45932,0,0,0-.018.30907l-.00155.13124a3.22287,3.22287,0,0,0,.0189.51217,2.05035,2.05035,0,0,0,.11726.39365c.0273.07358.05418.14672.077.2196l.03251.10554a3.35105,3.35105,0,0,0,.181.49734,4.12608,4.12608,0,0,0,.33125.54809,2.13951,2.13951,0,0,0,.28819.30992c.052.04936.10356.09849.15331.14964a3.98883,3.98883,0,0,0,.48145.40819c.069.05148.13474.10871.2001.16617a1.63517,1.63517,0,0,0,.3029.22786,3.70045,3.70045,0,0,0,.57167.22539l.09672.03175.02408.09876a1.64858,1.64858,0,0,1,.06227.58516c-.00254.06249-.00558.13815-.00609.24082-.001.20291-.00778.30422-.01451.40553-.00627.09575-.01259.19145-.01354.383a.83991.83991,0,0,1-.244.58968.87414.87414,0,0,1-.59253.28388,1.67623,1.67623,0,0,1-.35965-.03615,1.28769,1.28769,0,0,0-.29091-.02954,1.6681,1.6681,0,0,0-.2979.02149,2.01326,2.01326,0,0,1-.35326.02525,1.4401,1.4401,0,0,1-.36589-.04355,1.07226,1.07226,0,0,0-.28465-.03421c-.15891-.00079-.23839.00172-.31831.00446-.08305.00249-.16611.00521-.33219.00439a1.03358,1.03358,0,0,0-.28322.03249,1.36739,1.36739,0,0,1-.36764.04215,1.31253,1.31253,0,0,1-.37072-.04914.94281.94281,0,0,0-.27974-.03756,1.35985,1.35985,0,0,0-.29212.026,1.70293,1.70293,0,0,1-.36.03192c-.16964-.00084-.25441-.00773-.33922-.01461-.07811-.00623-.15575-.01261-.312-.01338a2.24555,2.24555,0,0,1-.34944-.02517,1.956,1.956,0,0,0-.30125-.0216,1.15238,1.15238,0,0,0-.2872.02961,1.496,1.496,0,0,1-.36405.03746,1.99022,1.99022,0,0,1-.35342-.029,1.65274,1.65274,0,0,0-.2972-.02467,2.94065,2.94065,0,0,1-.34414-.01911,2.5338,2.5338,0,0,0-.30708-.01739l-.64822-.00031a1.56548,1.56548,0,0,0-.29521.02287,1.87371,1.87371,0,0,1-.35374.02728c-.15938-.00079-.23886.00125-.31878.00355-.08258.002-.1652.00431-.33081.00349a1.95281,1.95281,0,0,0-.30055.01857,2.23442,2.23442,0,0,1-.34924.0217,1.10915,1.10915,0,0,1-.38006-.06149.75228.75228,0,0,0-.27034-.04417c-.15938-.00079-.23887.00238-.31832.00532-.08353.00339-.167.00654-.334.00571-.16831-.00083-.25219-.00615-.3361-.0117-.079-.00509-.15753-.01015-.31467-.01093a.81845.81845,0,0,0-.27479.03881,1.17944,1.17944,0,0,1-.37616.05261,1.5373,1.5373,0,0,1-.3623-.03973,1.17493,1.17493,0,0,0-.28737-.0318c-.16831-.00083-.25266-.00682-.337-.01284-.07808-.00552-.15619-.011-.3129-.01182a.7253.7253,0,0,0-.269.04287,1.06907,1.06907,0,0,1-.382.06038l-1.304-.01136c-.16964-.00084-.25441-.00773-.33922-.01465-.07807-.00619-.15575-.01257-.312-.01334-.15891-.00079-.238.00239-.31746.00532-.08349.00339-.167.00654-.33353.00571-.16784-.00083-.25219-.00615-.3361-.0115-.07855-.00482-.1571-.00991-.31467-.01069a2.7073,2.7073,0,0,0-.30856.01364,3.02351,3.02351,0,0,1-.34431.015,1.26674,1.26674,0,0,1-.37251-.05115.91853.91853,0,0,0-.27883-.03846,1.4537,1.4537,0,0,0-.29435.02444,1.79983,1.79983,0,0,1-.35775.02969c-.16608-.00082-.2491-.00414-.33256-.00745-.07946-.00329-.15935-.00659-.31916-.00738-.16655-.00083-.24957-.00414-.33256-.00745-.07993-.0031-.16025-.0064-.3201-.00719a1.95754,1.95754,0,0,0-.30232.01884,2.24778,2.24778,0,0,1-.35014.0217,2.029,2.029,0,0,1-.35342-.02832,1.731,1.731,0,0,0-.299-.024,1.96617,1.96617,0,0,0-.30232.01857,2.29117,2.29117,0,0,1-.35057.0215,1.316,1.316,0,0,1-.37123-.04895.96227.96227,0,0,0-.28107-.03733,2.25887,2.25887,0,0,0-.305.01632,2.57555,2.57555,0,0,1-.34656.01839c-.17008-.00084-.25531-.0084-.34055-.016-.07764-.00685-.15528-.0137-.31066-.01447a1.03613,1.03613,0,0,0-.285.03252,1.39992,1.39992,0,0,1-.36854.04171,1.11109,1.11109,0,0,1-.38049-.0613.76582.76582,0,0,0-.27124-.04394.87381.87381,0,0,0-.27788.03746,1.22133,1.22133,0,0,1-.37615.05037,1.19,1.19,0,0,1-.377-.05591.85169.85169,0,0,0-.27616-.04111c-.158-.00078-.23664.00373-.31567.008-.0844.00472-.16879.00943-.33758.00859a2.105,2.105,0,0,0-.305.01746,2.45955,2.45955,0,0,1-.34966.0197L1.85592,44.71a2.46947,2.46947,0,0,0-.30857.01524,2.78168,2.78168,0,0,1-.34741.017l-.21517-.00287a.83409.83409,0,0,0-.41375.06939,1.20287,1.20287,0,0,0-.36612.45379l-.02613.04517a1.15833,1.15833,0,0,0-.17746.58711,1.218,1.218,0,0,0,.13225.61137,1.06719,1.06719,0,0,0,.42065.33982l.06588.0383a1.08833,1.08833,0,0,0,.56834.1767,1.93209,1.93209,0,0,1,.35921.03078,1.62828,1.62828,0,0,0,.3008.02583c.16784.00083.25177.004.3357.007.08122.00307.162.00617.32406.007l.65985.00237a1.0061,1.0061,0,0,0,.28589-.03385,1.37,1.37,0,0,1,.37388-.04392,3.13674,3.13674,0,0,1,.34681.01826,2.83349,2.83349,0,0,0,.312.01648,1.34687,1.34687,0,0,1,.37343.04829,1.00118,1.00118,0,0,0,.28511.03692,1.5025,1.5025,0,0,0,.29878-.02419,2.14955,2.14955,0,0,1,.72012.0031,1.55459,1.55459,0,0,0,.299.02649,2.04345,2.04345,0,0,0,.30545-.01835,2.37478,2.37478,0,0,1,.35323-.021c.15714.00078.23532-.00553.31392-.01181.08617-.00694.17281-.01388.34516-.013a2.37923,2.37923,0,0,0,.30947-.01567,2.74929,2.74929,0,0,1,.34965-.01747c.16827.00083.2522.00439.33655.00794.08036.00349.16115.007.32229.00783a1.456,1.456,0,0,1,.36992.044,1.08754,1.08754,0,0,0,.28865.03466,1.69313,1.69313,0,0,0,.30147-.02194,1.98525,1.98525,0,0,1,.35816-.02613,2.12373,2.12373,0,0,0,.30725-.01768,2.41855,2.41855,0,0,1,.35237-.02032,1.50682,1.50682,0,0,1,.36942.04224,1.14218,1.14218,0,0,0,.2905.03334,2.59983,2.59983,0,0,0,.31123-.01452,2.87672,2.87672,0,0,1,.34921-.01633,2.23407,2.23407,0,0,0,.30858-.017,2.55783,2.55783,0,0,1,.35232-.01926c.16831.00083.25267.00415.33659.00747.08122.00311.162.00641.32406.00721a1.29466,1.29466,0,0,1,.377.05164.92871.92871,0,0,0,.28283.03914c.16878.00084.25267.00458.33706.00837.08079.0035.16158.00727.32315.00807a1.31807,1.31807,0,0,0,.29526-.02691,1.69988,1.69988,0,0,1,.36446-.03276l.65981.0017c.16878.00084.25357.005.33792.00947.08036.0042.16067.0084.32142.0092.17008.00084.25485.00593.3401.01105.07992.00486.15933.00973.31918.01052.16294.00081.24466-.00059.32591-.00219.08348-.00139.167-.00274.33351-.00191a2.5041,2.5041,0,0,1,.35211.02318,2.17923,2.17923,0,0,0,.30753.02026c.16247.00081.24329-.00126.32458-.00309.08391-.002.16787-.00407.33528-.00324a2.75269,2.75269,0,0,0,.31213-.01385,3.01751,3.01751,0,0,1,.34831-.01544c.16208.0008.24333-.00126.32458-.00309.084-.00205.16791-.00407.33575-.00323.15985.00079.23931-.00395.31928-.00868.08573-.00494.171-.00989.342-.009.16831.00083.25224.004.33613.007.08126.00307.16249.00617.32453.007a2.158,2.158,0,0,1,.35613.0272,1.83969,1.83969,0,0,0,.30438.02338c.16874.00084.2531.00463.33745.00837.08036.00373.16115.0075.32276.0083a2.66861,2.66861,0,0,0,.31166-.01409,3.00427,3.00427,0,0,1,.34831-.01567,1.20009,1.20009,0,0,0,.293-.02935,1.55658,1.55658,0,0,1,.36758-.03682,2.189,2.189,0,0,1,.35527.02676,1.87307,1.87307,0,0,0,.30434.02295c.16118.0008.24153-.00237.32192-.0053.08482-.00338.16921-.00653.33842-.00569.162.0008.24286-.0015.32368-.00376.08439-.00248.16834-.00473.33665-.0039a1.5074,1.5074,0,0,1,.369.042,1.16129,1.16129,0,0,0,.29136.03315c.15985.00079.24021-.00375.32017-.008.08526-.00471.17056-.00923.3411-.00838.16071.0008.2411-.003.3215-.00687.08482-.00381.16969-.00786.33976-.007a2.1737,2.1737,0,0,1,.35613.027,1.86273,1.86273,0,0,0,.30434.02318c.15761.00078.23622-.00529.31525-.01117.08621-.00647.17242-.013.34516-.01212.16878.00084.25314.00439.337.00794.08079.0033.16158.0068.32319.0076.15714.00078.23622-.00573.31482-.012a3.3947,3.3947,0,0,1,.34559-.01326,3.24131,3.24131,0,0,1,.34771.01779,2.87437,2.87437,0,0,0,.31331.01629c.162.0008.24333-.00146.32415-.00372.08439-.00248.16877-.00477.33708-.00393a1.09139,1.09139,0,0,0,.28945-.0318,1.445,1.445,0,0,1,.3721-.04079c.17141.00085.25665.00684.34233.01306.07945.00553.15932.01129.31827.01208a2.4682,2.4682,0,0,1,.353.02362,2.12669,2.12669,0,0,0,.30753.02073,1.98237,1.98237,0,0,0,.30635-.01878,2.33863,2.33863,0,0,1,.35457-.02148c.16028.00079.2402-.00328.32056-.00711.08487-.00428.17016-.00829.34024-.00744.15895.00079.23844-.00376.31794-.00826.08526-.00471.17013-.00942.34067-.00858a1.57086,1.57086,0,0,1,.36587.03955,1.22828,1.22828,0,0,0,.29227.03155c.16741.00083.25091.00348.3348.00636.08079.00263.16206.00551.3241.00631a1.069,1.069,0,0,0,.28812-.03227,1.42042,1.42042,0,0,1,.37164-.04146c.16831.00083.25224.00392.33613.007.08126.00311.16249.00617.32457.007.17188.00085.258.00708.3437.01354.07941.00576.15932.01172.31823.01251a1.37758,1.37758,0,0,1,.373.047,1.03965,1.03965,0,0,0,.28735.03622c.15757.00078.23661-.00506.31521-.01117.08621-.00623.17285-.01274.34519-.01189.17051.00085.25575.0064.341.01219.07988.00529.15933.01059.31827.01138a.72821.72821,0,0,0,.273-.04371,1.08527,1.08527,0,0,1,.38737-.06125,1.05124,1.05124,0,0,1,.389.068.70608.70608,0,0,0,.27122.04778.80517.80517,0,0,0,.27789-.04059,1.16083,1.16083,0,0,1,.38378-.0557,1.14839,1.14839,0,0,1,.38453.06061.78739.78739,0,0,0,.277.04425.88551.88551,0,0,0,.28145-.03791,1.401,1.401,0,0,1,.75938.00377.8857.8857,0,0,0,.28106.0407l.66075.00261a.73157.73157,0,0,0,.27431-.04418,1.08148,1.08148,0,0,1,.38828-.06191c.17145.00085.25712.0066.3428.0124.07992.00529.15933.01082.31917.01161a1.34358,1.34358,0,0,1,.37566.0492.97164.97164,0,0,0,.28511.03778.84973.84973,0,0,0,.28055-.03944,1.19541,1.19541,0,0,1,.382-.05324,1.51022,1.51022,0,0,1,.36989.04224,1.16443,1.16443,0,0,0,.29226.03339c.17188.00085.25755.00708.34327.01354.07945.00572.15932.01172.31823.01251l.663.00239c.15848.00079.23751-.00486.317-.01069.08621-.00608.17241-.01231.34515-.01146s.25892.00775.345.01488c.07944.00639.15889.01305.31783.01384.16024.00079.2402-.00328.32056-.00711.08487-.00428.17016-.00852.34024-.00768.16831.00083.25224.00368.33613.00657.08126.00264.16249.00547.325.00628a1.10423,1.10423,0,0,0,.29121-.03179,1.45948,1.45948,0,0,1,.37257-.04059,1.34212,1.34212,0,0,1,.37518.0492.98882.98882,0,0,0,.28644.03783.79329.79329,0,0,0,.2779-.04149,1.144,1.144,0,0,1,.38555-.057,1.09631,1.09631,0,0,1,.38765.06466.74919.74919,0,0,0,.27523.04624,1.31627,1.31627,0,0,0,.297-.02733,1.671,1.671,0,0,1,.36627-.03369,2.65369,2.65369,0,0,0,.31389-.01428,3.04175,3.04175,0,0,1,.35054-.0157,1.73658,1.73658,0,0,1,.36592.036,1.36326,1.36326,0,0,0,.29941.02962c.16161.0008.24287-.00283.32369-.00643.08529-.00385.17059-.00766.34156-.00681a1.22106,1.22106,0,0,0,.60965-.14006,1.27623,1.27623,0,0,0,.47536-.42735,1.29852,1.29852,0,0,0,.1062-.62426A1.20831,1.20831,0,0,0,60.38587,45.58839ZM34.66715,39.89727c-.05542.01736-.11045.03453-.16232.05547-.04653.01917-.09309.04261-.14007.066a1.1019,1.1019,0,0,1-.499.15087,1.72444,1.72444,0,0,1-.65767-.174L33.144,39.969a1.56014,1.56014,0,0,1-.53108-.3098,1.34264,1.34264,0,0,1-.27259-.4909l-.0445-.11383a1.69357,1.69357,0,0,1-.12134-.65329,1.73524,1.73524,0,0,0-.02082-.29857,1.96547,1.96547,0,0,1-.02548-.35349,1.5127,1.5127,0,0,1,.04107-.36433,1.15941,1.15941,0,0,0,.03223-.28756,1.174,1.174,0,0,0-.0289-.289,1.52066,1.52066,0,0,1-.037-.36468,1.20684,1.20684,0,0,1,.055-.37653.8666.8666,0,0,0,.04021-.2773c.00079-.15957-.00191-.23949-.00465-.31945-.00272-.08325-.00587-.16678-.005-.33352a1.305,1.305,0,0,0-.02622-.29232,1.67685,1.67685,0,0,1-.03262-.36066,1.82513,1.82513,0,0,1,.03257-.35744,1.475,1.475,0,0,0,.02694-.29543.86929.86929,0,0,0-.03746-.27788,1.21913,1.21913,0,0,1-.05084-.37658,1.3273,1.3273,0,0,1,.04918-.37189.96781.96781,0,0,0,.0371-.28174,1.09807,1.09807,0,0,0-.03071-.28654,1.46171,1.46171,0,0,1-.03968-.36716,1.58253,1.58253,0,0,1,.03883-.363,1.2201,1.2201,0,0,0,.03091-.29047c.00079-.15981-.00195-.23973-.00464-.31988-.00319-.08353-.00634-.16725-.00551-.33466a1.41245,1.41245,0,0,0-.02531-.29455,1.7594,1.7594,0,0,1-.03082-.35955,3.01417,3.01417,0,0,1,.01911-.34567,2.57569,2.57569,0,0,0,.01717-.30884,1.83452,1.83452,0,0,0-.01994-.30146,2.15663,2.15663,0,0,1-.02325-.353,2.21565,2.21565,0,0,1,.02632-.35237,1.92438,1.92438,0,0,0,.022-.30211,2.35635,2.35635,0,0,1,.0245-.34987,2.02338,2.02338,0,0,0,.02114-.30306A2.15456,2.15456,0,0,0,32.223,26.986a2.535,2.535,0,0,1-.01924-.34856,1.8448,1.8448,0,0,0-.01994-.30213,2.1616,2.1616,0,0,1-.02325-.35325,3.01858,3.01858,0,0,1,.01868-.345,2.712,2.712,0,0,0,.0167-.30908c.0008-.16094-.001-.24129-.0033-.32168-.00225-.08329-.00454-.16677-.00372-.33328a2.54977,2.54977,0,0,1,.02274-.34945,2.18018,2.18018,0,0,0,.01982-.30616c.00085-.17121.00841-.25668.016-.34235.00709-.07811.01374-.156.01452-.31222l.00592-.65623c.00084-.16921.00573-.2538.01061-.33838.00486-.07988.00926-.15953.01-.31891a.72758.72758,0,0,0-.04329-.27168,1.07024,1.07024,0,0,1-.06192-.38624,1.347,1.347,0,0,1,.15673-.54857l.046-.10335a1.79947,1.79947,0,0,1,.92164-.93275,1.66762,1.66762,0,0,1,.65942-.092A1.68407,1.68407,0,0,1,35.508,20.76726c.01719.04225.03752.08456.05784.1273a1.18457,1.18457,0,0,1,.14837.51438c-.00082.16537-.00346.2482-.00658.33076-.00216.08037-.00479.16049-.00559.321a1.26377,1.26377,0,0,1-.05185.373.91383.91383,0,0,0-.03846.27907.71848.71848,0,0,0,.0433.2694,1.07257,1.07257,0,0,1,.0615.38447c-.00083.16808-.00572.252-.01013.33592-.00443.07945-.00839.1591-.00918.31805-.00077.156.00464.23418.01052.31211.00628.08531.013.17061.01214.34116a1.1421,1.1421,0,0,1-.05949.37917.78754.78754,0,0,0-.04285.273,1.47807,1.47807,0,0,0,.024.29545,1.8248,1.8248,0,0,1,.029.35774c-.00085.17141-.00888.25688-.01643.34255-.00709.07787-.01417.15574-.01495.31132a2.21648,2.21648,0,0,1-.02628.3519,1.92141,1.92141,0,0,0-.022.30192.70026.70026,0,0,0,.04421.26831,1.05252,1.05252,0,0,1,.06283.38558,1.46662,1.46662,0,0,1-.04289.36656,1.10051,1.10051,0,0,0-.0336.28689,1.928,1.928,0,0,0,.019.30255,2.22389,2.22389,0,0,1,.02239.35214,1.61493,1.61493,0,0,1-.038.36254,1.25187,1.25187,0,0,0-.03048.29094,2.58361,2.58361,0,0,0,.0141.309,2.88294,2.88294,0,0,1,.01616.34584,2.2106,2.2106,0,0,1-.02632.3519,1.92458,1.92458,0,0,0-.022.30215c-.00078.15691.00463.23551.00961.31411.00628.08531.01209.17037.01124.34092a1.3599,1.3599,0,0,0,.02578.29279,1.71394,1.71394,0,0,1,.03215.36042,1.2854,1.2854,0,0,1-.05052.37251.93762.93762,0,0,0-.038.28,1.65956,1.65956,0,0,0,.02219.29877,1.88649,1.88649,0,0,1,.02723.35687,1.54685,1.54685,0,0,0,.0231.29744,1.87667,1.87667,0,0,1,.0277.35683,1.15044,1.15044,0,0,1-.059.37988.79537.79537,0,0,0-.0429.27458,1.8437,1.8437,0,0,0,.01994.30189,2.09865,2.09865,0,0,1,.02415.35415,1.688,1.688,0,0,0,.02128.29966,2.03274,2.03274,0,0,1,.02547.35526,1.88889,1.88889,0,0,1-.03124.35768,1.55894,1.55894,0,0,0-.02605.29833c-.00083.16718-.00391.25063-.007.33432-.00263.0806-.00527.16139-.00607.323a1.42247,1.42247,0,0,0,.0253.29588,1.73677,1.73677,0,0,1,.03171.36179,1.07335,1.07335,0,0,1-.15826.493c-.02524.04855-.05048.09643-.07083.14476-.02169.05146-.03936.10628-.0575.16086a1.06794,1.06794,0,0,1-.23615.45A1.05671,1.05671,0,0,1,34.66715,39.89727ZM60.45073,41.6917c-.01875-.08357-.03754-.16737-.06617-.33582-.02952-.17089-.03846-.25735-.0474-.34376-.00811-.08042-.01664-.1608-.04352-.31988l-.111-.659c-.02735-.15952-.04482-.23908-.06226-.31821-.01835-.08423-.03667-.168-.0653-.33758-.02953-.17046-.03846-.25668-.0474-.3429-.00854-.08038-.01707-.1608-.044-.31965-.02735-.15909-.04616-.23795-.065-.31662-.01965-.08447-.03976-.16875-.06886-.33944a3.47712,3.47712,0,0,1-.04424-.34775c-.00674-.07974-.01351-.15945-.0404-.31673l-.11681-.65864c-.02735-.15975-.04572-.23889-.06406-.318-.01922-.084-.03847-.16827-.06753-.33806-.02952-.17093-.0398-.25669-.04964-.34291-.00944-.08038-.0193-.16124-.04618-.32056-.02689-.15728-.047-.23458-.06719-.31216a3.46062,3.46062,0,0,1-.07378-.34256c-.02948-.172-.03755-.25911-.04558-.34646-.00764-.07994-.01484-.16012-.04173-.3183-.02735-.15881-.04616-.23728-.06541-.31572-.02055-.08448-.04113-.16919-.07018-.34031-.02906-.16979-.03847-.25625-.04788-.342-.00853-.08108-.0175-.16147-.0448-.32232l-.11642-.658c-.02731-.15952-.04569-.23865-.0636-.31774-.01922-.084-.03843-.16808-.06753-.33787-.02861-.16622-.04026-.25066-.05191-.33419-.01162-.08243-.02282-.1642-.051-.32838-.02777-.16132-.04477-.24131-.06225-.3213-.01789-.0838-.03577-.16759-.06441-.336-.02953-.17023-.04027-.25536-.05145-.34135-.0103-.08039-.02063-.16172-.04794-.3219-.02864-.16756-.03982-.25242-.051-.33665-.01072-.08219-.02149-.16372-.04925-.327-.02776-.16218-.04481-.24241-.06137-.32306-.01742-.0836-.03487-.16716-.06351-.33514-.02777-.162-.04524-.24222-.06267-.32244-.01788-.084-.03577-.16826-.06487-.33782-.02864-.16646-.04026-.25113-.05234-.33489-.01166-.08286-.02285-.16482-.051-.32971l-.11683-.66287a1.63637,1.63637,0,0,0-.88585-1.2348c-.167-.085-.24982-.12848-.33264-.1722-.082-.043-.16342-.08632-.32819-.16994a3.35207,3.35207,0,0,0-.3252-.14736,3.70187,3.70187,0,0,1-.35457-.16047c-.17055-.08679-.25335-.1352-.33615-.18339-.07835-.04569-.15669-.09142-.31833-.1737a.4084.4084,0,0,0-.18463-.04508.4212.4212,0,0,0-.19084.045.41088.41088,0,0,0-.21849.30337c-.0276.16841-.04408.25137-.06056.335-.0156.07916-.03163.159-.05828.318l-.10729.65482-.21988,1.311c-.02621.15745-.03288.23713-.04.317-.00756.08657-.01559.17314-.04368.34445l-.11082.65547c-.02809.17174-.049.25625-.07047.341-.01911.07691-.03827.15425-.064.31018a2.61,2.61,0,0,0-.03549.31232,2.9706,2.9706,0,0,1-.03971.34941c-.02667.16191-.08547.48932-.11306.65613-.02671.16172-.03781.24314-.04938.32455-.01158.08365-.0236.1671-.05076.33348a3.25227,3.25227,0,0,1-.07314.34317,2.88325,2.88325,0,0,0-.06537.30817c-.02622.15949-.03513.24-.04446.32034-.00936.08523-.01867.17022-.04675.3395-.02716.16661-.04321.24958-.05926.33254-.01557.08073-.0307.16146-.05784.32361-.02716.16685-.04454.25023-.06192.333-.01694.08029-.0334.15988-.0601.3216a2.69634,2.69634,0,0,0-.035.31279,2.95094,2.95094,0,0,1-.03924.35027c-.02808.17037-.04813.25468-.06775.339-.01869.07825-.03695.1563-.06316.31441-.02623.16082-.036.24158-.04624.32257-.01026.08475-.02051.16931-.04811.33749-.02808.17061-.04723.25445-.06685.339-.01783.07805-.03562.15654-.0614.31375-.0267.16129-.03737.24224-.048.32323-.01111.08389-.02227.16774-.04986.33458-.02764.16818-.045.2518-.06237.33542-.01646.07982-.0334.15965-.0601.3207-.02715.16438-.03825.2458-.05026.32835-.01158.08228-.02316.16573-.05031.32964-.02626.15949-.0347.23982-.04356.32035-.00893.08547-.01825.17113-.04633.34063-.02809.17127-.049.256-.07.34052-.01916.078-.03828.15562-.06453.314-.02623.16015-.03556.24091-.0449.32144-.00979.08523-.01958.17022-.04765.33906-.02623.16015-.03513.24092-.04447.32168-.00936.08542-.01915.17089-.04723.34063a3.25024,3.25024,0,0,1-.0731.34293,3.10758,3.10758,0,0,0-.06629.312c-.02627.15992-.036.24111-.04537.32167-.01022.08589-.02048.17111-.04856.34105a.38928.38928,0,0,0,.10288.32194.39671.39671,0,0,0,.30009.162l.77411.00607c.19512.001.29241.003.39018.00507.096.002.192.004.38391.005a.41989.41989,0,0,0,.40493-.36182l.11421-.69813c.02809-.17954.04506-.2681.06248-.35752.01649-.08472.033-.17015.05973-.3401l.111-.69862c.02767-.17351.03836-.26006.04906-.34728.01071-.08859.02185-.178.04953-.35469.37559-2.35879.28225-1.7491,1.45382-.583.11328.113.17152.168.22972.223.06.05657.12.11334.23682.22976.1173.11713.17457.17745.23188.23754.05508.05831.1106.11663.22474.23037.116.116.17325.17521.23056.2342.05685.05856.11279.11687.22877.23215.11418.11374.17281.16874.23195.2237.06085.057.12217.114.24037.232a1.93464,1.93464,0,0,0,.17511.15512,1.02233,1.02233,0,0,1,.3009.36132.65772.65772,0,0,1,.103.37931,1.05347,1.05347,0,0,0,.01124.16818c.01771.11926.02945.17849.04079.23745.01262.06347.02524.12694.04427.25495a.39252.39252,0,0,0,.38711.34792c.19778.001.29686.0077.39593.01423.09285.0065.18612.01276.37274.01368.19061.00095.575-.00185.7683-.00089a.41723.41723,0,0,0,.30623-.16746.39932.39932,0,0,0,.10073-.32673C60.48658,41.85083,60.4691,41.7715,60.45073,41.6917Zm-4.42548-5.87193c-1.29232-1.28883-1.19242-.63672-.90608-2.47378.02581-.16349.04185-.24488.05742-.326.01512-.0783.03025-.15657.05513-.31383.02626-.167.04587-.24956.06505-.332.01778-.07625.03555-.15231.06-.3062l.04709-.31339c.01158-.08341.02315-.16463.04941-.33059.15337-.966.33042-5.68447,1.13959.03559.02418.1653.0336.24905.04256.33214.009.08128.01793.1619.0417.32363l.095.6532c.02331.16016.03812.23971.05246.31945.01519.08288.03041.1658.05506.33244.0246.1682.03311.25285.04116.3375.00811.08014.01574.16032.03948.31962.02289.15726.0399.235.057.313.01832.0838.0362.16783.06127.33713C57.42248,37.07992,57.90059,37.69128,56.02525,35.81977Zm-8.0151-14.755c.12655.04929.38318.15481.51507.20636.13546.05291.20545.07379.27543.0949.06286.01884.12571.03768.2478.08538a.43888.43888,0,0,1,.265.40155l-.00641.66227c-.00084.1692.00231.25382.005.33843.00272.081.00545.16209.00464.32414-.0008.16139-.00433.24218-.0083.323-.004.08458-.008.16916-.00882.33836-.00079.15893-.00609.23837-.01184.31781-.00578.08547-.012.17071-.01286.34169-.00084.1692.00276.25382.00591.33821.00317.08082.0059.16142.0051.32258-.00079.15938-.0061.239-.0114.31871-.00578.08524-.01156.17071-.01241.34125-.00084.16987.00365.25472.00814.33956.00362.07993.00769.15987.0069.31969-.0008.16183-.00388.24285-.007.32364-.0031.08414-.00664.16828-.00747.33636a3.37448,3.37448,0,0,0,.01347.34495c.00631.07838.01262.15654.01184.31324-.00081.16295-.00255.24442-.00429.32588-.00175.083-.00395.16606-.00477.33213l-.00238.65983a2.94414,2.94414,0,0,1-.01584.31243,3.18926,3.18926,0,0,0-.01824.34657,3.06445,3.06445,0,0,0,.01524.34741,2.79768,2.79768,0,0,1,.01318.31235c-.0008.16072-.00477.24106-.00874.32117-.004.08436-.00843.16871-.00926.33747-.00083.16764.00143.25136.00325.33507.00183.08126.00366.1623.00285.32458-.00084.16875.00276.25315.00592.33754.00317.08015.0059.16053.0051.32124l-.00148.6585c-.00078.15759-.007.23636-.01362.31512-.00712.08591-.01469.17181-.01554.34369-.0008.16049-.00476.24061-.00918.32073-.00444.08458-.00887.16916-.00971.33813a2.483,2.483,0,0,0,.01969.351,2.19094,2.19094,0,0,1,.01678.30724l-.00014.65761a2.31842,2.31842,0,0,1-.01894.3084,2.68635,2.68635,0,0,0-.02138.34946c-.00081.16362-.00736.49306-.00818.65914a2.40457,2.40457,0,0,0,.02058.35235,2.07646,2.07646,0,0,1,.01768.30613c-.0008.16094-.00388.24151-.0074.32185-.00354.08391-.00753.16783-.00836.33546a4.31741,4.31741,0,0,1-.05489.6252,4.26421,4.26421,0,0,1-.141.61115,4.32254,4.32254,0,0,1-.22389.58574l-.02843.06147a3.889,3.889,0,0,1-.261.49649,3.56238,3.56238,0,0,1-.33644.41308l-.06375.07134a4.18235,4.18235,0,0,1-.44728.43775,4.13466,4.13466,0,0,1-.50941.36334,4.0285,4.0285,0,0,1-.555.28878,2.434,2.434,0,0,1-.43183.113l-.17474.03663a3.84048,3.84048,0,0,1-.61346.09942l-.1572.01127c-.11166.00882-.22242.01765-.33224.0171-.04063-.0002-.0808-.00174-.121-.00529a2.54021,2.54021,0,0,1-.43038-.08785l-.16631-.04234a4.14848,4.14848,0,0,1-.58084-.17677l-.13278-.05245a2.88752,2.88752,0,0,1-.42674-.1923,4.18505,4.18505,0,0,1-.49466-.36006,3.7434,3.7434,0,0,1-.39317-.391l-.0373-.041a4.18926,4.18926,0,0,1-1.0335-2.1657,4.05325,4.05325,0,0,1-.03583-.60712c.00036-.1625.003-.24441.00519-.32566.00266-.08548.00531-.17007.00571-.34128.00039-.1692-.00187-.25381-.00413-.33843-.00183-.08193-.0041-.16409-.00328-.32793l.0033-.66563c.00037-.16384.00256-.246.00431-.32812.0022-.0837.004-.16762.00479-.33548.00042-.17389-.0063-.261-.01345-.34785-.0063-.07928-.01261-.15877-.01182-.31726l.00792-1.32747c.00035-.16139.00477-.24217.00919-.323.00444-.08525.00888-.17072.00973-.34126.0004-.17054-.00409-.25583-.00858-.34113-.00407-.08016-.00813-.16054-.00734-.321.00039-.16786-.00143-.25158-.00325-.33552-.00138-.08171-.00321-.16341-.0024-.32659a3.17191,3.17191,0,0,1,.01408-.3178c.00712-.08635.0147-.17315.01556-.34614.00039-.16853-.00143-.2527-.00369-.33686-.00183-.08171-.0041-.1632-.00329-.32637.00036-.163.00345-.24463.00608-.3261.0031-.08436.00619-.16873.007-.3377a3.17511,3.17511,0,0,0-.01568-.349,2.80257,2.80257,0,0,1-.01362-.31414A2.14412,2.14412,0,0,1,41.07,28.8389a2.41491,2.41491,0,0,0,.02319-.35526,2.5725,2.5725,0,0,0-.02012-.35324,2.12117,2.12117,0,0,1-.01766-.30947,2.17637,2.17637,0,0,1,.01939-.30974,2.6156,2.6156,0,0,0,.02228-.35258c.00041-.17233-.00541-.25852-.01168-.34471-.00541-.07972-.01082-.15943-.01-.31859l.006-.66339c.00034-.15938.00565-.23927.0114-.31893.00578-.08569.01156-.17138.01241-.34281.00041-.1721-.00453-.2574-.009-.34358-.00452-.07949-.009-.15965-.00869-.31858.0004-.17054-.00409-.25583-.00858-.34113-.00407-.08038-.00858-.16054-.00778-.32081a2.18381,2.18381,0,0,1,.0194-.31018,2.62084,2.62084,0,0,0,.02229-.353c.0004-.17166-.005-.2574-.00991-.34314-.005-.07994-.00992-.15965-.00913-.31925.0004-.17032-.005-.25584-.00992-.34091-.00451-.08038-.00947-.16032-.00868-.32081a2.57566,2.57566,0,0,1,.01673-.31265A3.05083,3.05083,0,0,0,41.111,21.198c.00041-.17188-.00542-.25785-.01169-.34382-.00541-.07927-.01082-.15854-.01-.317.00038-.16608-.00189-.25-.00415-.33307-.00182-.08215-.0041-.16364-.00328-.32815.00035-.1605.00521-.24083.00963-.32117.00489-.08525.00977-.17027.01062-.34081a.43044.43044,0,0,1,.15347-.33764.364.364,0,0,1,.22579-.0683.546.546,0,0,1,.13607.01853c.20109.05234.30277.07427.40445.09621.09767.021.19533.042.38884.09278.19083.04983.28443.08155.378.113.10028.034.20012.06774.40433.121a.41561.41561,0,0,1,.33518.38c-.00078.15759-.00519.23659-.01.31536-.00488.08391-.01021.16781-.011.33567-.00079.1596-.00387.23928-.00694.31917-.00309.0828-.00663.16582-.00745.33167-.00084.16875.00455.25316.00993.33756.005.07815.00994.15631.00916.31256a2.12693,2.12693,0,0,1-.0198.30237,2.49914,2.49914,0,0,0-.0227.34588c-.00082.1654.00145.248.00372.33061.00228.0797.00412.1594.00333.31878-.0008.16049-.00253.24062-.00472.32075-.00175.08191-.00394.164-.00475.32789a2.25357,2.25357,0,0,0,.02149.34789,1.98226,1.98226,0,0,1,.01816.3001,2.50083,2.50083,0,0,1-.01758.30506,2.71917,2.71917,0,0,0-.02045.34366l-.00678.64687a2.96032,2.96032,0,0,0,.01527.34138,2.6478,2.6478,0,0,1,.01366.30544l-.01089,1.29642-.00321.64822c-.00078.15781-.0043.23659-.00826.3156-.004.083-.00841.16581-.00924.33189-.00081.16362.00294.48776.00214.64825l-.00232.64756c-.00076.154-.0074.231-.01447.308-.00756.08479-.01513.16957-.016.339a2.32255,2.32255,0,0,0,.021.34744,1.98578,1.98578,0,0,1,.01815.30032c-.00079.16-.00253.24017-.00471.32008-.00219.08191-.00438.16382-.0052.32767l-.0041.64666c-.00079.15848-.00386.23771-.00693.31694-.00309.08235-.00662.16471-.00744.32944-.00078.15737-.00474.23615-.0087.31492-.00443.08279-.00886.16581-.00968.33166l.00081.6478c-.00078.15826-.0043.23726-.00782.31627-.00354.0828-.00752.16537-.00834.33077-.00083.16674.00367.25025.00817.33354.00408.07815.00815.15652.00738.31277-.00082.16563.00279.24846.00639.33129.00318.07859.00636.15718.00558.31433-.00078.1567-.00518.235-.00959.31336-.00443.083-.00931.166-.01013.33188-.00078.15648-.00518.23458-.01.31291-.00488.08324-.0102.16647-.011.333-.00083.16674.00367.25025.00817.33354.00363.07837.00771.15652.00693.313a1.8538,1.8538,0,0,0,.15288.7711,1.75245,1.75245,0,0,0,.4952.61163,1.619,1.619,0,0,0,.70906.33813,2.22856,2.22856,0,0,0,.44574.05266,1.35943,1.35943,0,0,0,.31312-.033,1.71727,1.71727,0,0,0,.6701-.35785,1.74786,1.74786,0,0,0,.49929-.57322,1.71592,1.71592,0,0,0,.13764-.748c.0008-.16049.00655-.2406.0123-.32071.00623-.08636.01246-.17271.01332-.34526.00086-.17322-.00541-.25963-.01123-.34627-.00541-.07994-.01081-.15988-.01-.3197.00083-.16764-.00288-.5-.00206-.66477a2.4682,2.4682,0,0,1,.01851-.3113,2.71914,2.71914,0,0,0,.02139-.35169c.00086-.17366-.0063-.26053-.013-.3474-.0063-.07928-.01216-.15855-.01137-.317.00078-.158.00787-.23725.015-.31623.00757-.0868.01559-.17337.01645-.347.00085-.171-.00409-.2565-.00857-.342-.00451-.08016-.00858-.16032-.00779-.32059l.00508-.66362c.00078-.15759.00787-.23635.015-.31512a3.39531,3.39531,0,0,0,.0169-.34613c.00085-.17165-.00453-.2574-.00991-.34314-.005-.07972-.00992-.15943-.00913-.31858.0008-.16139.00477-.24217.00919-.32273.00444-.085.00888-.17027.00972-.34037a3.07585,3.07585,0,0,0-.01568-.34964,2.65736,2.65736,0,0,1-.01407-.31325c.00083-.16741-.00054-.25113-.00147-.33462-.00093-.08215-.00186-.1643-.00105-.32837a2.97938,2.97938,0,0,1,.01585-.31444,3.243,3.243,0,0,0,.0178-.34769c.0008-.16161.00477-.2424.00875-.32341.004-.0848.00843-.16983.00927-.3397s-.00276-.25471-.00635-.33978c-.00362-.0806-.00679-.1612-.006-.32236.00086-.17322-.0063-.25986-.013-.34651-.0063-.07905-.01261-.15788-.01183-.31547a3.034,3.034,0,0,1,.0154-.31534,3.41279,3.41279,0,0,0,.0169-.347c.00084-.16942-.00231-.25426-.00546-.33888-.00317-.081-.00589-.16187-.00509-.3237.00081-.16339.003-.24486.00519-.32655.0022-.0837.0044-.1674.00523-.33481.0008-.16228.00389-.24329.007-.32431.0031-.08436.00664-.1685.00747-.33681.00084-.16853-.00187-.25292-.00458-.33731-.00228-.081-.00455-.16208-.00375-.32414.00084-.16987-.00275-.25493-.00635-.34-.00362-.0806-.00679-.1612-.006-.32259.00079-.16.00565-.23994.011-.31982.00578-.08547.01156-.17093.01241-.34192a3.40241,3.40241,0,0,0-.01346-.34629c-.00631-.07861-.01261-.15721-.01183-.31458.00079-.1596.0061-.23926.0114-.31893.00578-.08547.01156-.17071.01241-.34125a.40376.40376,0,0,1,.41685-.42473.42381.42381,0,0,1,.15254.02866c.12387.04838.18445.07614.245.10367C47.81055,20.98252,47.876,21.01231,48.01015,21.06476Zm-6.553,39.04914a1.177,1.177,0,0,1,.2111.57848,1.201,1.201,0,0,1-.19232.59112,1.15748,1.15748,0,0,1-.47892.356,1.75,1.75,0,0,1-.74429.19716c-.23068.0166-.50411-.03971-.80446-.029-.24931.00887-.51659.06886-.8.07393-.25771.00461-.52618.09068-.8021.09234-.26286.00157-.53234-.02562-.80331-.02657-.26716-.00093-.53578-.06821-.80289-.07145-.27137-.00329-.54119.02833-.80432.02282-.27643-.00579-.5455-.03258-.80351-.04064-.284-.00887-.55482.00418-.80432-.00721-.30062-.01372-.56956-.06032-.79968-.07731a2.972,2.972,0,0,1-.77778-.11386,1.15506,1.15506,0,0,1-.4342-.42629,1.22141,1.22141,0,0,1-.20559-.59093,1.16438,1.16438,0,0,1,.25787-.56155,1.081,1.081,0,0,1,.39863-.43718c.185-.10591.1854-.16795.7751-.17724.19976-.00315.46466.00022.82375.00235.2326.00138.50436.03043.82355.033.2455.002.51935-.052.82421-.04976.25211.00188.52616-.07085.82327-.069.25676.0016.53082.03127.824.03271.25961.00127.53384.02484.8239.02588.2618.00094.53626.0258.82425.02649.26351.00063.53835-.08466.82484-.0843.26492.00033.53977.09778.82517.09784a1.24351,1.24351,0,0,1,.62993.11544C41.28312,59.71066,41.35979,59.94422,41.45717,60.1139ZM57.89231,51.254a.04081.04081,0,0,1,0,.00938.95227.95227,0,0,1-.40809.75006c-.16361.09084-.46806.00077-.82909.05518a7.96172,7.96172,0,0,1-.78676.12559c-.23505.01615-.49683.096-.79531.10674-.24346.00873-.51193-.07844-.80237-.07293-.24809.0047-.51248.13661-.79776.1392-.25124.00228-.51837-.14891-.80043-.14811-.25352.00072-.51979.17609-.79961.17573-.25523-.00033-.52168-.07161-.79985-.07275-.25655-.00105-.52294-.03385-.79982-.03552-.25759-.00155-.5234-.10392-.79925-.106-.25842-.00191-.52548.06391-.80047.06163-.25907-.00216-.52554-.00993-.79977-.01239-.25963-.00232-.52571-.05194-.79931-.0545-.26011-.00243-.52643-.02337-.7995-.026-.26053-.0025-.52876.1748-.80137.17215-.26089-.00253-.52626-.12078-.79847-.12343-.26123-.00254-.52889.1159-.80076.11328-.26154-.00253-.52726-.08616-.79883-.08875-.26183-.0025-.52909.073-.80043.07043-.26211-.00246-.52823-.05315-.79937-.05563-.26238-.00241-.52945.04378-.80043.04136-.26265-.00235-.528-.156-.79889-.15834-.26248-.00228-.5292.03586-.79951.03359-.26278-.00221-.53038.13051-.80066.12832-.26308-.00214-.52924-.06459-.79953-.0667-.26339-.00206-.52906-.15819-.79939-.16022-.26348-.002-.53105.1001-.8012.09816-.26357-.0019-.52984-.077-.79985-.07885-.26347-.00181-.531.14816-.80071.14639-.26378-.00173-.53-.0897-.79977-.09139-.26414-.00165-.53118-.00172-.80113-.00331-.26394-.00156-.53109.07244-.80065.07093-.26453-.00148-.532.03995-.802.03852-.26463-.0014-.5317-.03772-.80165-.03906a1.50674,1.50674,0,0,1-.81433-.36061,1.11009,1.11009,0,0,1-.317-.76723,2.44342,2.44342,0,0,1,.13752-.6286c.08184-.19391.12792-.457.3317-.5905A1.248,1.248,0,0,1,30.283,49.643c.27394.00136.54469.09681.81321.098.274.00125.54572-.10576.81418-.10464.27414.00114.5452.03838.81357.03939.27423.001.54537.025.81365.02589.27433.00092.54511.15029.81328.15108.27443.00081.54574-.0154.81379-.01471.27452.0007.54582-.02651.81374-.02593.27462.00059.5458.01.81356.01046.27471.00048.546-.09447.8136-.0941.27481.00038.546-.07563.81336-.07536.27491.00027.54588.022.81306.02218.275.00017.54593-.00271.81287-.00264.27511.00007.546.05493.81262.0549.27522,0,.546.0673.81237.06719.27552-.00011.54628-.12227.8125-.12246.27585-.0002.54673-.004.81276-.00426.27618-.00026.54731.18642.8131.18611.2765-.00032.54733-.09067.81281-.091.27682-.00036.54783.08472.81292.08437.27712-.00037.54775-.10913.81233-.10947.27745-.00036.54813.03579.81211.0355.27813-.0003.54883-.04129.81239-.04148.2788-.00019.54956-.066.81251-.066.27948,0,.55011.09519.81222.09545.28042.00027.5512-.071.8124-.07039.28194.0007.55233.14373.8127.14495.2833.00133.55405-.03.81287-.0279.28495.00227.55565-.036.81233-.0327.28782.00372.55632.09971.81054.105.29154.006.56573-.14908.816-.14075.29754.00991.56628.05791.81036.07162.30848.01733.58207-.00706.81466.01738a3.73154,3.73154,0,0,1,.7744.2705c.39415.10181.4997.20648.5808.39247A1.69743,1.69743,0,0,1,57.89231,51.254ZM-.00842,41.64395c.00083-.167-.00233-.25047-.005-.334-.00273-.08015-.005-.1603-.00422-.32035l.00458-.654c.00079-.1596.00431-.23927.00783-.31895.004-.08369.008-.16715.0088-.33412l.00725-.65177c.00083-.16831-.00366-.25248-.00815-.33666-.00407-.079-.00815-.15786-.00736-.3159.0008-.16116.00254-.24151.00472-.32209.00219-.08236.00439-.16494.00521-.32967l.00591-.65089C.01194,36.9095.00922,36.82645.007,36.7434c-.00228-.07993-.00456-.15985-.00377-.3199.00079-.15915.00386-.23861.00738-.31828.00354-.0828.00707-.1656.00789-.33145.00078-.15759.00519-.23614.01-.31492.00488-.08368.01021-.16737.011-.33478.00083-.16652-.00233-.2498-.005-.33285-.00273-.07993-.005-.15963-.00422-.319.00078-.15759.00519-.23659.01-.31536.00488-.08391.01021-.16781.011-.33567C.05219,33.654.04858,33.57027.045,33.48677c-.00362-.07926-.0068-.15852-.006-.317.00079-.16.00342-.23995.00605-.31985.00264-.0828.00573-.16538.00655-.33078.00084-.16965-.005-.2545-.01127-.33913-.005-.07815-.01039-.15631-.00961-.31234.0008-.16139.00732-.48659.00814-.65065l.00278-.65023c.00077-.15558.007-.23346.0136-.3111.00712-.08479.01424-.1698.01508-.33945.00084-.17009-.00588-.25517-.01215-.34025-.00586-.07771-.01173-.15542-.011-.31078.00079-.15893.00386-.23838.00738-.31806.00354-.0828.00752-.16582.00834-.33167.00082-.16473-.001-.24689-.00283-.32927-.00139-.08014-.00278-.16029-.002-.32033C.05889,27.8.05618,27.717.05346,27.63413c-.00273-.0797-.005-.15918-.00423-.31834l.00189-.65091c.00078-.15648.00607-.23458.01182-.3129.00578-.08435.012-.16847.01283-.33723A1.66315,1.66315,0,0,1,.216,25.38262a1.72838,1.72838,0,0,1,.33315-.56109,1.72715,1.72715,0,0,1,.54294-.3721,2.73223,2.73223,0,0,1,.28894-.10772,3.108,3.108,0,0,0,.322-.11961l.60038-.25194a2.7107,2.7107,0,0,0,.30925-.15249,2.51014,2.51014,0,0,1,.27479-.135c.1463-.06267.22055-.09154.2948-.12042.07694-.03.15388-.06018.30554-.12483C3.63454,23.37472,4.685,22.935,4.685,22.935L5.28046,22.68c.15346-.06554.22864-.10222.30338-.1389.07116-.03469.14187-.06939.28682-.13117.14406-.06156.21741-.08821.2912-.11463.07872-.02841.15743-.05659.31088-.12212a.42041.42041,0,0,1,.16848-.0351.40068.40068,0,0,1,.22021.06739.40537.40537,0,0,1,.18535.3458c-.0008.16049.00148.24086.00376.32124.0023.07725.00414.15449.00338.30918a2.53063,2.53063,0,0,1-.01621.297,2.82781,2.82781,0,0,0-.01862.3334c-.00079.16027.00149.24042.00377.32057.00185.07724.0037.15449.00293.309a.397.397,0,0,1-.25411.376l-.60386.23429c-.157.06172-.23353.09818-.30961.13485-.07026.03358-.14052.06739-.285.124l-.60165.2381c-.14806.05775-.22275.08461-.29744.1117-.07737.02774-.1543.05549-.30683.115-.14627.05731-.221.08217-.29563.107-.07871.0264-.15786.05257-.31218.11319-1.516.59056-1.31327-.03367-1.32323,1.97476l-.00508.66384c-.00085.17076.00364.25628.00857.34157.15458,3.04663-.48837,2.66879,1.20654,2.292.08179-.01835.164-.03646.32848-.06869.16177-.03157.24352-.04254.32528-.05352.08712-.01185.17423-.02369.34628-.05721l.6663-.13018a.53288.53288,0,0,1,.10362-.01.36623.36623,0,0,1,.23578.07952.40181.40181,0,0,1,.13279.32143c-.00081.16273.00236.244.00553.32549.00274.07725.00548.15472.00471.30963l-.00538.635c-.00081.1625.00236.24377.00553.325.00274.07725.00548.1545.00472.30919a.43451.43451,0,0,1-.35344.42036c-.176.02815-.26538.03886-.35383.04936-.09336.01114-.18583.02229-.37081.052-.17827.02858-.26807.04086-.35742.05292-.09158.01272-.18306.02592-.36591.05444-1.94244.303-1.61122-.00082-1.623,2.37463l.00035.6498c-.00082.16563.00145.24845.00371.33128.00228.07993.00412.15985.00333.31967-.00083.16674.00278.25025.00638.33353.00318.07926.00636.1583.00557.31656-.00078.15648-.006.2348-.01137.3129-.09493,1.38417.08876,1.18665,1.58432,1.19406l1.4018.00784c.17857.00089.26788-.002.35763-.00492.08573-.00292.17191-.00584.34379-.005.171.00085.25668.00507.34193.00929.08971.00446.179.0087.358.00959a.39969.39969,0,0,1,.41279.39447c-.00094.1904-.005.28548-.00948.38055-.00451.09887-.00946.198-.01044.39572-.001.20179.00743.30295.01541.40389.00757.09312.0147.18624.01378.3724a.41512.41512,0,0,1-.43366.39273,2.821,2.821,0,0,0-.33759.01574,2.48393,2.48393,0,0,1-.30008.01414l-.638-.00383a2.75085,2.75085,0,0,1-.30127-.01556,3.17913,3.17913,0,0,0-.3352-.01706c-.16607-.00082-.24869.005-.33176.01086-.07592.00543-.15185.01085-.30363.0101l-.63616-.00449c-.16116-.0008-.242.00081-.32235.00242-.07858.0014-.15672.003-.31342.00224-.15536-.00077-.233-.00406-.31069-.00712-.08124-.0033-.162-.00661-.32364-.00741-.154-.00076-.23078-.00561-.30755-.01023-.08212-.00509-.16424-.01-.32808-.01078-.1625-.00081-.24377.00236-.325.00553-.07725.003-.1545.00615-.30852.00539-.15447-.00077-.23168-.00472-.3089-.00845-.08123-.0042-.16247-.00817-.325-.009A.40144.40144,0,0,1-.00842,41.64395ZM30.91228,55.19361a1.19475,1.19475,0,0,1,.17983.595,1.3063,1.3063,0,0,1-.12444.62962,1.34081,1.34081,0,0,1-.45858.46714c-.04946.02829-.36177-.04318-.83248-.02357-.22845.00952-.49818.07856-.80814.08615-.24721.00606-.51891-.009-.81135-.0041-.25488.00425-.525.07212-.81007.0755-.25905.00308-.53062-.07406-.81153-.07168-.26179.00222-.5327-.05125-.811-.04962-.26378.00155-.53388.1129-.81045.11394-.26527.001-.5361-.04354-.81134-.043-.26616.00051-.53652.01667-.81036.01676-.26724.00009-.53782.06663-.81086.06634-.26817-.00029-.53871-.069-.81106-.06961-.269-.00065-.53954-.04773-.81126-.04873-.26966-.001-.54041.02834-.81141.027-.27054-.00132-.541-.06394-.81156-.06558-.27132-.00165-.54328.14327-.81327.14131-.272-.002-.54179-.15949-.8111-.16177-.27259-.00232-.54413.0773-.81255.07468-.27336-.00267-.54475.04629-.81229.04331-.2744-.00306-.54384-.13143-.81054-.1348-.27564-.00349-.54764.06606-.8133.06224-.2769-.004-.54718-.05034-.81125-.05465-.27873-.00455-.55084.05478-.813.04986-.2812-.00528-.55072-.0787-.81-.08438-.28521-.00624-.55627-.00392-.81123-.01062-.29253-.00769-.56434.00769-.81155-.00056-.31055-.01036-.57976-.08107-.80833-.09225-.47363-.02317-.748.00834-.79272-.01783a1.16322,1.16322,0,0,1-.50282-.39994c-.09649-.16879.00014-.40882.00126-.63516.00105-.21183-.07768-.44351.02723-.62246.10446-.17873.32786-.25459.51187-.35993a2.58967,2.58967,0,0,1,.78265-.11891c.22809-.01168.5017.042.811.03238.24681-.00769.51463-.12493.80656-.13135.25449-.00559.52486-.03543.80948-.04007.25865-.00422.53024.07476.81072.07131.26139-.00321.531-.07139.80889-.07394.26335-.00242.53368-.01032.8098-.01215.26484-.00176.53516-.0146.80994-.01583.26572-.00119.53619.14845.80958.14774.2668-.00069.53665-.09419.80925-.09442.26777-.00023.53795.05773.80989.05794.26861.00021.53913-.1276.81044-.127.26926.00062.53956.02114.81015.02216.27013.001.54014.10493.81028.10635.2709.00143.54167-.03478.81125-.033.27159.00184.54166.06584.81056.06807.27217.00226.54326-.07132.81125-.06866.273.00271.54273.063.80987.06607.274.00319.54384.05132.81013.05494.27513.00374.54677-.0714.81194-.06722.27638.00435.54557.07812.80915.083.27834.0051.55211-.147.81388-.14134.28074.006.54994.07724.80881.08384.28473.00726.554.059.8086.067.292.00912.56314.00607.81.01606.30963.01254.57838.06924.80651.08311a3.09986,3.09986,0,0,1,.76636.09456A1.148,1.148,0,0,1,30.91228,55.19361Zm21.38159.08492a1.2292,1.2292,0,0,1,.1492.616,1.27874,1.27874,0,0,1-.13627.62611c-.0896.15358-.29072.23194-.51592.36074a3.20138,3.20138,0,0,1-.793.09518c-.231.01331-.5023.09069-.81295.10116-.25.00843-.52359.03177-.81713.03841-.25782.00584-.53307-.09653-.81927-.092-.26225.00413-.53416.09506-.81632.09812-.26515.00287-.53852-.01606-.81805-.01412-.26706.00185-.53993.02426-.81734.02528-.2688.001-.542-.07143-.818-.07119-.27025.00023-.54337.07337-.8182.07289-.27147-.00047-.54478.023-.81847.02189-.27263-.00113-.54543-.08053-.81807-.08231-.27385-.00179-.54694-.02093-.81857-.02335-.275-.00245-.54867.03972-.81908.03664-.27629-.00315-.549-.0463-.81811-.05009-.27771-.00391-.55094.00045-.81827-.00413-.27978-.00479-.55385.02978-.81923.0243-.28237-.00584-.55468-.05469-.8171-.06129-.28645-.0072-.56136.03826-.81936.03019-.29384-.00919-.56561-.07375-.81579-.084-.31155-.01278-.59092.057-.82221.0427a2.20611,2.20611,0,0,1-.79435-.164,1.105,1.105,0,0,1-.63068-1.01843,1.2747,1.2747,0,0,1,.13805-.62677c.36992-.63319.632-.40214,1.29724-.43229.23116-.01048.50206-.11507.81331-.12352.25026-.0068.52607.07561.82.07012.25808-.00482.531-.02858.81758-.0324.26252-.0035.53552-.03777.818-.04043.26542-.0025.53865-.02945.81849-.03121.26734-.00168.54059-.00622.81831-.00723.26909-.001.54246.00546.81879.00511.27053-.00034.54389.07818.819.07844.27176.00025.54538-.10819.81938-.10735.27292.00084.54631.03788.81924.03929.27415.00142.54817-.05341.8201-.05141.27528.002.548.11224.81865.11487.27659.00268.55059-.03692.82-.03363.278.0034.5505.07221.81813.07627.28008.00425.55381-.00732.81948-.00236.28269.00528.55593.01838.81866.02447.28677.00665.56147-.03032.81977-.02271.29414.00867.57074-.0485.8212-.03859.31186.01234.585.078.81659.09229a2.84893,2.84893,0,0,1,.79637.1184A1.24425,1.24425,0,0,1,52.29386,55.27853Zm-48.443-3.32665a1.20693,1.20693,0,0,1-.62573-.0676,1.29714,1.29714,0,0,1-.37928-.50476,1.404,1.404,0,0,1-.2553-.47837c-.00156-.0529-.001-.05371.00053-.10662a1.28616,1.28616,0,0,1,.20549-.61109c.095-.16226.30995-.21016.519-.32967a1.03561,1.03561,0,0,1,.5466-.18934,2.81936,2.81936,0,0,0,.3525-.02179c.01945-.00186.30185-.02591.79233-.02485.22429.00049.49157-.04029.79575-.0393.24249.00079.50859-.01277.79518-.01169.25029.00094.516.06761.79571.06874.25435.001.52.02274.79551.02391.257.00109.52271-.01424.7957-.013.259.00114.525-.088.79617-.08681.26043.00117.52553.11387.7954.11511.26131.0012.5271-.10118.79558-.09992.2624.00123.52778.01354.79546.01481.26335.00125.52848.0863.79547.08758.264.00127.5294.00757.79553.00886.265.00128.53083-.03555.79651-.03425s.532-.07221.79717-.0709c.26659.00132.53212.07612.79659.07744.26722.00133.53335-.067.79694-.06566.268.00134.53332.08684.796.08816.26906.00136.53526-.062.79713-.06071.27023.00137.53634-.02758.79712-.02625.27152.00138.53746-.00318.79672-.00185.27331.0014.53883.08321.79616.08454.27584.00142.54163.03878.79624.04009.27983.00145.54567.0566.79609.0579.287.00149.554-.10585.79685-.10458.30423.00159.57108.07.79541.07119a3.23625,3.23625,0,0,0,.796-.08692,1.39262,1.39262,0,0,1,.65244.12393c.22457.13139,1.21438,1.37063-.09367,2.119a1.0258,1.0258,0,0,1-.57085.19462c-.2737-.00136-.54363-.04409-.81026-.0454-.27379-.00134-.54415.05347-.81058.05218-.27388-.00133-.5436-.06517-.80981-.06645-.274-.00132-.54431.07919-.81028.07793-.27413-.0013-.54341-.13621-.80917-.13745-.27429-.00128-.54457.08646-.81008.08523-.2746-.00127-.54451-.00958-.80988-.01079-.27491-.00125-.54507.03376-.81023.03257-.27521-.00123-.54478-.10359-.80969-.10475-.27551-.00121-.54594.09689-.81053.09575-.27581-.00118-.54542-.0799-.80961-.081-.27611-.00116-.546.01974-.80974.01866-.27651-.00113-.54649.05192-.80967.05088-.27714-.0011-.54721.05819-.80995.05718-.27777-.00107-.5474-.04992-.80951-.05089-.27839-.001-.54768-.11385-.80893-.11477-.27954-.001-.54965.06252-.81021.06165-.28081-.00094-.55088.02552-.81045.0247-.28206-.00088-.5519.02682-.80991.02608-.2837-.00081-.55283-.13312-.80881-.13378-.28635-.00073-.5562.16137-.80975.16082-.29-.00063-.559-.13369-.80886-.1341-.29578-.00048-.56468.1405-.80882.14028-.30649-.00028-.57418-.1761-.80809-.176-.33447.00009-.59978.06563-.81015.0662C3.80771,51.98878,3.85089,51.95188,3.85089,51.95188ZM28.5066,60.02859a1.10468,1.10468,0,0,1-.01563,1.19117,1.15409,1.15409,0,0,1-.45794.39424,1.02877,1.02877,0,0,1-.76094.24155c-.1964.00412-.45884-.0159-.817-.01833-.22967-.00156-.49847-.06719-.81574-.07015-.24276-.00226-.51375.01077-.81631.00821-.24946-.00211-.52086.042-.81554.03994-.25416-.00175-.52576-.03-.81643-.03147-.257-.00134-.52886-.01043-.8164-.01146-.25924-.00093-.53141.05879-.81686.05819-.261-.00054-.53306-.04063-.817-.04083-.26237-.00018-.53472-.03618-.81756-.036a1.13272,1.13272,0,0,1-.59265-.14341,1.02479,1.02479,0,0,1-.61828-1.03166,1.18368,1.18368,0,0,1,.21564-.57861c.10491-.17962.18705-.41173.372-.51774.06967-.03992.39373.03487.82422.008.22852-.01429.49577-.03648.79408-.04688.24719-.00862.51411-.0098.79534-.01564.25558-.00531.52118-.10083.795-.10378.26073-.00281.52822.11045.79709.10984.265-.0006.53162-.04.79665-.03844.26921.00163.53671-.03212.79783-.02817.27407.00415.54318-.05344.7991-.04666.28169.00746.553-.03642.80067-.02569.298.01291.56585.09421.79444.112a1.92733,1.92733,0,0,1,.76582.19951A1.18134,1.18134,0,0,1,28.5066,60.02859ZM19.02037,13.62765a1.21608,1.21608,0,0,1-.35345-.06763,1.205,1.205,0,0,0-.1988-.04245,1.336,1.336,0,0,1-.22732-.049,1.25949,1.25949,0,0,1-.22161-.08586,1.01959,1.01959,0,0,0-.18851-.07326c-.09936-.02951-.15181-.04221-.2015-.054-.0589-.01365-.11319-.02682-.22359-.05915a.42671.42671,0,0,0-.12059-.02041l-.14838.00894a.64059.64059,0,0,1-.17583-.02805,1.84941,1.84941,0,0,1-.21337-.07707,1.59767,1.59767,0,0,0-.20049-.07286.9962.9962,0,0,1-.22342-.09324.77963.77963,0,0,0-.1848-.07785.75815.75815,0,0,0-.19515-.0346.91376.91376,0,0,1-.24026-.04173,1.77714,1.77714,0,0,0-.20429-.0503,1.97135,1.97135,0,0,1-.22361-.05547,1.83317,1.83317,0,0,0-.20061-.048,1.79839,1.79839,0,0,1-.22546-.05363.66544.66544,0,0,1-.22792-.114.46506.46506,0,0,0-.17185-.08746c-.09936-.02951-.41945-.13613-.41945-.13613a.42837.42837,0,0,0-.12151-.02087l-.15114.00939a.60957.60957,0,0,1-.17859-.029c-.10672-.03185-.31641-.1066-.41944-.13752a1.3637,1.3637,0,0,1-.45656-.27037.71279.71279,0,0,1-.19377-.31237,1.10147,1.10147,0,0,0-.05921-.13573,1.227,1.227,0,0,1-.17369-.4606,1.23741,1.23741,0,0,1,.06877-.49165.82135.82135,0,0,0,.02663-.16847.608.608,0,0,1,.1049-.34544.58932.58932,0,0,1,.32147-.17162.87307.87307,0,0,0,.156-.05681.999.999,0,0,0,.13037-.09333.64307.64307,0,0,1,.32145-.167l.00829,0a.71026.71026,0,0,1,.33122.09331,1.00826,1.00826,0,0,0,.1618.07082.35374.35374,0,0,0,.0985.01661l.19266-.02024a.54343.54343,0,0,1,.15558.02473.53332.53332,0,0,1,.2306.132.33692.33692,0,0,0,.15892.09522l.42135.12463.176,0,.14014-.02a.49432.49432,0,0,1,.13993.02235,1.70805,1.70805,0,0,1,.21889.07848,1.75072,1.75072,0,0,0,.1959.06961.568.568,0,0,1,.23337.12968.36743.36743,0,0,0,.15987.08924.33666.33666,0,0,0,.09758.01661l.20281-.02295a.56048.56048,0,0,1,.14822.02239.64893.64893,0,0,1,.22976.11584.43133.43133,0,0,0,.17183.09206,1.53875,1.53875,0,0,1,.21612.07892,1.50343,1.50343,0,0,0,.19773.07146l.42043.12416a1.39,1.39,0,0,0,.20431.04616,1.46827,1.46827,0,0,1,.22915.05181,1.53949,1.53949,0,0,1,.20876.07612,1.4266,1.4266,0,0,0,.20691.07842,1.8961,1.8961,0,0,0,.19876.04889,1.90376,1.90376,0,0,1,.23005.056,1.21311,1.21311,0,0,1,.43551.24217c.03579.02828.07712.0552.11753.08166a.77023.77023,0,0,1,.276.25612.705.705,0,0,1,.05624.36374,1.14857,1.14857,0,0,0,.00295.14881.8425.8425,0,0,0,.03607.15865.64471.64471,0,0,1,.0332.36455.69431.69431,0,0,1-.2531.31891,1.04582,1.04582,0,0,0-.124.11317l-.07045.08579a.93031.93031,0,0,1-.32672.301,1.0035,1.0035,0,0,1-.43337.06879Zm4.7671-3.93208a.89362.89362,0,0,1-.39856-.07522,1.36377,1.36377,0,0,1-.43826-.42967c-.06407-.08462-.09888-.12533-.13277-.16558a2.166,2.166,0,0,1-.14193-.17668s-.20145-.25114-.26918-.34084a.70372.70372,0,0,1-.11772-.22815.48816.48816,0,0,0-.0876-.17042c-.06316-.08369-.098-.123-.13371-.16282a1.91182,1.91182,0,0,1-.1447-.17577c-.06407-.08462-.09888-.12487-.1337-.16466a2.14735,2.14735,0,0,1-.14285-.17622.9764.9764,0,0,1-.1197-.20052.8049.8049,0,0,0-.10506-.18018,1.42548,1.42548,0,0,0-.13557-.15914,1.56011,1.56011,0,0,1-.15022-.17764c-.06865-.09155-.09973-.13915-.13082-.18676l-.12168-.17243A1.48594,1.48594,0,0,0,20.7497,6.197a1.68313,1.68313,0,0,1-.28006-.37683,1.15641,1.15641,0,0,0-.11063-.17145c-.06407-.08554-.20419-.25576-.27192-.34639a.47.47,0,0,0-.1394-.13014.67456.67456,0,0,1-.18891-.17829,1.77667,1.77667,0,0,1-.13079-.19459,1.89552,1.89552,0,0,0-.11707-.17425,1.11978,1.11978,0,0,1-.16837-.41912l-.03071-.12407a1.0924,1.0924,0,0,1-.054-.44435A1.34247,1.34247,0,0,1,19.416,3.1366a1.37783,1.37783,0,0,1,.33923-.40831.91078.91078,0,0,1,.38488-.13859l.11621-.0243a1.15214,1.15214,0,0,1,.28947-.034,1.62613,1.62613,0,0,1,.21551.01627c.04511.00621.09116.00967.13629.01265a.81591.81591,0,0,1,.38467.089,1.4058,1.4058,0,0,1,.387.364,1.75606,1.75606,0,0,1,.12712.19,1.747,1.747,0,0,0,.11615.17332.61849.61849,0,0,1,.114.23458.45264.45264,0,0,0,.08118.16532,1.53223,1.53223,0,0,0,.13557.15914,1.72042,1.72042,0,0,1,.15021.1781c.05858.07768.08875.12528.11617.16872a2.06,2.06,0,0,0,.12986.19458.31947.31947,0,0,0,.13949.11171.53073.53073,0,0,1,.21106.17011.51259.51259,0,0,1,.10467.258.3156.3156,0,0,0,.06644.16571.35632.35632,0,0,0,.13946.11678.55429.55429,0,0,1,.20735.1747.54345.54345,0,0,1,.10657.24791.34256.34256,0,0,0,.071.16481.37549.37549,0,0,0,.13852.12046.57936.57936,0,0,1,.2.1742.59566.59566,0,0,1,.10941.23226.39377.39377,0,0,0,.07927.17821l.2636.35233a.33279.33279,0,0,0,.14224.11357.52329.52329,0,0,1,.2129.172,1.87338,1.87338,0,0,1,.13261.19736,1.91321,1.91321,0,0,0,.11524.1701.75549.75549,0,0,1,.11891.359c.00713.04887.01427.09451.02511.13786a1.1973,1.1973,0,0,0,.05179.14721.71727.71727,0,0,1,.07285.35784.87269.87269,0,0,1-.17129.35617l-.07056.10791a1.4723,1.4723,0,0,1-.71027.54329,1.2284,1.2284,0,0,1-.40121.08692l-.20547.00221Zm18.27731,4.08735a.92278.92278,0,0,1-.13813-.01312.88561.88561,0,0,0-.12431-.014,1.04591,1.04591,0,0,1-.45172-.13215,1.322,1.322,0,0,1-.4949-.34242,1.20575,1.20575,0,0,1-.28977-.46256,1.2468,1.2468,0,0,1-.05279-.50285,1.30164,1.30164,0,0,1,.13422-.49731,1.3445,1.3445,0,0,1,.34188-.38526.94716.94716,0,0,1,.37206-.15478l.10609-.028c.10057-.029.155-.04023.20848-.05194.05718-.01215.10975-.02295.21032-.05193a1.00113,1.00113,0,0,0,.18646-.0714,1.14836,1.14836,0,0,1,.22247-.086.45087.45087,0,0,0,.169-.08392.64758.64758,0,0,1,.23275-.11539.88051.88051,0,0,1,.24342-.03795.68034.68034,0,0,0,.19271-.03037c.10057-.029.15041-.04716.19933-.06535.05538-.02046.108-.04.21687-.07125.10334-.02989.1541-.04761.20486-.06532.05907-.02044.11167-.0386.21593-.06849a.6182.6182,0,0,1,.1844-.02719l.13264.00711a.4502.4502,0,0,0,.12724-.0201,1.84586,1.84586,0,0,0,.19565-.06675,1.98436,1.98436,0,0,1,.2215-.07629c.09965-.029.14949-.04809.19934-.06719a2.04314,2.04314,0,0,1,.21687-.07263.87068.87068,0,0,1,.24342-.03795.6907.6907,0,0,0,.19455-.03036,1.27126,1.27126,0,0,0,.19291-.07045,1.51618,1.51618,0,0,1,.22152-.0809c.107-.03033.16237-.043.21586-.05467.05995-.0126.11252-.02432.21493-.05329a1.19493,1.19493,0,0,0,.19291-.07183,1.42281,1.42281,0,0,1,.22245-.08228.8058.8058,0,0,1,.22956-.02927,1.92427,1.92427,0,0,1,.22288.01723,1.30116,1.30116,0,0,1,.52076.14447,1.44383,1.44383,0,0,0,.13145.061.75326.75326,0,0,1,.31684.20472,1.3856,1.3856,0,0,1,.21874.47971,1.03945,1.03945,0,0,1,.00427.43857l-.01832.16437a1.02985,1.02985,0,0,1-.09878.4118,1.33844,1.33844,0,0,1-.32638.41713,1.37888,1.37888,0,0,1-.46382.264.66738.66738,0,0,1-.18994.02854l-.12988-.00571a.458.458,0,0,0-.1208.02105s-.33209.08312-.42436.10984a.41763.41763,0,0,0-.16627.08716.59771.59771,0,0,1-.23185.12047c-.10426.02989-.15868.04252-.21218.05469-.059.01307-.11068.02479-.2131.05422a1.77427,1.77427,0,0,1-.22689.05,1.51559,1.51559,0,0,0-.202.04506.6266.6266,0,0,1-.17242.02586l-.16025-.01323a.39912.39912,0,0,0-.11526.01832,1.2843,1.2843,0,0,0-.19475.07044,1.33945,1.33945,0,0,1-.2206.08044,1.92351,1.92351,0,0,1-.22506.0514,1.67446,1.67446,0,0,0-.202.04645.2834.2834,0,0,0-.14972.09462.48321.48321,0,0,1-.23659.14762l-.03967.01086-.10139.00963a.51774.51774,0,0,1-.14361-.02282l-.176-.00225a.31756.31756,0,0,0-.15524.09228.50208.50208,0,0,1-.23656.14025l-.03967.01132-.11061.011a.56465.56465,0,0,1-.1289-.01722l-.1806.00325a.34788.34788,0,0,0-.15707.08951.53343.53343,0,0,1-.23653.13472ZM36.68555,9.801a.79831.79831,0,0,1-.25135-.03441A1.41186,1.41186,0,0,1,36.052,9.55a.74313.74313,0,0,1-.20853-.30968c-.02643-.05817-.04374-.09788-.06475-.13391a1.20211,1.20211,0,0,1-.14507-.47152L35.613,8.52331a.86754.86754,0,0,1-.01188-.39208,1.32205,1.32205,0,0,1,.22526-.46323c.06491-.0849.102-.1271.13719-.16746.04169-.04678.076-.08623.14-.17021.07047-.0904.10845-.13259.14644-.17479a2.09519,2.09519,0,0,0,.13439-.16149l.26065-.35342a1.04762,1.04762,0,0,1,.15933-.1738.92313.92313,0,0,0,.13986-.14994c.05842-.07664.25789-.35481.25789-.35481a1.0926,1.0926,0,0,0,.11141-.17128,1.34026,1.34026,0,0,1,.12906-.19975l.1243-.16937c.04083-.05876.07238-.10467.13544-.18636.06028-.08032.08907-.12532.11693-.16941a1.76423,1.76423,0,0,1,.13085-.191c.06955-.09041.21135-.25923.27626-.34321a.94758.94758,0,0,1,.16671-.17515.75833.75833,0,0,0,.138-.144c.06028-.07986.09735-.123.13071-.162.04818-.0555.0834-.09633.14831-.18123a1.25153,1.25153,0,0,0,.10955-.1676,1.307,1.307,0,0,1,.13184-.2048.50433.50433,0,0,0,.08928-.1677.77673.77673,0,0,1,.12089-.226,1.106,1.106,0,0,1,.357-.27417,1.48967,1.48967,0,0,1,.54835-.217,1.69339,1.69339,0,0,1,.223-.01456,1.17278,1.17278,0,0,1,.29557.03648.82992.82992,0,0,1,.32054.202l.10184.08527a1.21813,1.21813,0,0,1,.34463.36057,1.23649,1.23649,0,0,1,.17916.47215.99206.99206,0,0,1-.05268.4042,1.43019,1.43019,0,0,1-.22014.54618c-.0677.08857-.10384.1317-.14091.17481-.04077.04725-.07506.08761-.13349.16426a1.28916,1.28916,0,0,0-.11232.16943,1.43227,1.43227,0,0,1-.13.19606,1.412,1.412,0,0,1-.151.17246,1.152,1.152,0,0,0-.139.15686c-.06584.08582-.1939.27129-.25974.35711a.44415.44415,0,0,0-.08374.165.67007.67007,0,0,1-.12.23066,1.73758,1.73758,0,0,1-.15014.17753,1.86149,1.86149,0,0,0-.13346.15827,1.10007,1.10007,0,0,1-.16025.17334.92313.92313,0,0,0-.13986.14994.819.819,0,0,0-.104.169,1.02434,1.02434,0,0,1-.12725.20759c-.05843.0771-.08721.12164-.11506.16343a1.9446,1.9446,0,0,1-.13733.19648c-.06214.08261-.09.12808-.11879.17308a2.01845,2.01845,0,0,1-.12992.18869.72558.72558,0,0,1-.18514.17644.54472.54472,0,0,0-.13886.13244c-.06862.08995-.21043.25969-.27627.34551a.44307.44307,0,0,0-.08559.16772.667.667,0,0,1-.11815.23113A1.2607,1.2607,0,0,1,36.868,9.7982l-.17967.00279Zm-6.21542-.90009a1.28014,1.28014,0,0,1-.50456-.06653,1.35678,1.35678,0,0,1-.464-.25751,1.4348,1.4348,0,0,1-.28244-.45469.71771.71771,0,0,1-.01663-.36309,1.15573,1.15573,0,0,0,.0146-.15747.56743.56743,0,0,0-.0285-.19869A.80125.80125,0,0,1,29.153,7.1466a.729.729,0,0,0-.023-.2005.98209.98209,0,0,1-.02822-.25443.62517.62517,0,0,1,.05382-.26369.4081.4081,0,0,0,.04241-.19143.94836.94836,0,0,0-.01923-.20924,1.13052,1.13052,0,0,1-.02365-.248.78738.78738,0,0,0-.022-.20188,1.02839,1.02839,0,0,1-.0273-.25488c.00058-.11747.00456-.17641.00946-.23535.004-.06586.008-.12112.00846-.22062a.55135.55135,0,0,1,.06676-.27192.35155.35155,0,0,0,.04883-.18541c.00053-.10687.00451-.16536.00846-.21923.00589-.07276.01077-.12755.01131-.23765a.49756.49756,0,0,0-.034-.19549.66926.66926,0,0,1-.04568-.26281l-.00051-.45376a2.29717,2.29717,0,0,1,.01227-.24409c.0049-.05894.00978-.1142.01028-.216a2.17641,2.17641,0,0,1,.01316-.23948A1.645,1.645,0,0,0,29.2277,2.122c.00056-.11286-.00752-.34231-.00693-.4607A1.01947,1.01947,0,0,1,29.24965,1.41a.74623.74623,0,0,0,.02591-.20809A1.17117,1.17117,0,0,1,29.359.72458,1.22983,1.22983,0,0,1,29.60347.29,1.265,1.265,0,0,1,30.01858,0a1.11236,1.11236,0,0,1,1.00336-.00654.87429.87429,0,0,1,.30373.247l.077.08238a1.19946,1.19946,0,0,1,.255.41586,1.16591,1.16591,0,0,1,.13492.47561.41192.41192,0,0,0,.03685.18721.639.639,0,0,1,.05119.2679.83319.83319,0,0,1-.03535.255.69685.69685,0,0,0-.02771.19933,2.11692,2.11692,0,0,0,.00906.21656c.00515.07557.00855.13363.008.23866-.00055.111.00286.16677.00627.22207.00332.07464.00579.1327.00528.23543a.612.612,0,0,1-.05661.26875.42021.42021,0,0,0-.0387.1873,1.59045,1.59045,0,0,0,.01091.21518,2.00707,2.00707,0,0,1,.0117.241,1.96343,1.96343,0,0,0,.00911.20734,2.32272,2.32272,0,0,1,.01073.25065.83431.83431,0,0,1-.03536.25549.68781.68781,0,0,0-.02772.20117,1.23906,1.23906,0,0,0,.01464.20691,1.41207,1.41207,0,0,1,.0181.25115c-.00058.117-.00456.176-.00945.234-.004.05756-.00885.1119-.00939.22153a1.11814,1.11814,0,0,0,.01556.206,1.33,1.33,0,0,1,.01994.25208,1.21155,1.21155,0,0,1-.02145.23714,1.14981,1.14981,0,0,0-.02137.22147c-.0005.10042.00292.15526.00543.20594.00506.09354.00754.1516.007.25432a.39864.39864,0,0,0,.0396.18861.60713.60713,0,0,1,.05669.27207,1.35,1.35,0,0,1-.13337.513.98125.98125,0,0,1-.255.323L31.311,8.595a.965.965,0,0,1-.32465.25452.9365.9365,0,0,1-.36511.053Z" style="fill:#e7e7e7"/><path d="M38.37545,72.4334a1.02636,1.02636,0,0,1,.03643-.44849.29074.29074,0,0,1,.0247-.07826,6.14971,6.14971,0,0,0,.28062-.77086c.04292-.09156-.00707-.21092.05349-.31075a1.02665,1.02665,0,0,0,.12217-.25873.712.712,0,0,0,.06246-.28687c-.00493-.03632.03189-.07641.03584-.11615a4.4847,4.4847,0,0,1,.20445-.60239,2.23093,2.23093,0,0,0,.123-.50637,1.4532,1.4532,0,0,1,.085-.33963c.13008-.06867.10438-.22038.17143-.32459a.2651.2651,0,0,1,.28823-.15515c.106.01345.13229.089.17015.18625.07308.18763.10111.38551.16792.57272.04815.13492.1066.26613.15684.40035a3.39682,3.39682,0,0,1,.223.63648c.036.23011.13061.43608.18439.65641a.58856.58856,0,0,0,.10022.20351.593.593,0,0,1,.12115.36986.62947.62947,0,0,0,.07954.32179,1.39832,1.39832,0,0,1,.09417.24873,1.32825,1.32825,0,0,0,.13043.34547.66777.66777,0,0,1,.0956.33889.71191.71191,0,0,0,.10047.28808,3.78975,3.78975,0,0,1,.23014.54766c.00438.01295.01525.02738.01251.0385-.039.15817.06728.28382.10184.42465a.66081.66081,0,0,1,.02872.1417c.00287.135-.045.21887-.16815.22531a5.44109,5.44109,0,0,0-.85675.18284.17247.17247,0,0,1-.21405-.08252.721.721,0,0,1-.08652-.27235.47649.47649,0,0,0-.07673-.23534c-.05911-.08561-.04265-.20852-.13836-.27615-.00817-.00577-.00955-.02681-.0079-.04a1.52043,1.52043,0,0,0-.13447-.56524c-.04461-.17813-.122-.34786-.18074-.52271-.0306-.09108-.05057-.18567-.07814-.27784-.02352-.07862-.05021-.15634-.07763-.2337-.00447-.0126-.02-.02129-.03036-.03179-.00781.01079-.02267.02178-.02235.03233a.31356.31356,0,0,1-.13694.253.14621.14621,0,0,0-.04322.13812,1.50064,1.50064,0,0,1-.22179.84043.72835.72835,0,0,0-.08964.33717c-.00457.17975-.11.33647-.0977.51685.00121.01775-.01538.03748-.02568.05514a2.49191,2.49191,0,0,0-.19746.5389c-.01617.05256-.02759.1067-.0459.15844a.20017.20017,0,0,1-.19144.13943.26982.26982,0,0,1-.31129-.1627c-.07191-.14993-.21855-.26263-.30047-.40947a3.47873,3.47873,0,0,0-.46747-.60649,3.60149,3.60149,0,0,1-.31685-.46616,1.54172,1.54172,0,0,0-.23078-.30413,1.155,1.155,0,0,1-.34481-.47815c-.008-.02508-.03983-.04255-.06063-.06355a.21925.21925,0,0,0-.02468.07092,1.373,1.373,0,0,0,.0343.38288,1.242,1.242,0,0,1,.00508.35252c-.00081.16252-.0073.32527-.00095.48751a5.711,5.711,0,0,0,.04282.57989.79441.79441,0,0,1-.00309.40727c-.01167.05676-.02673.13927.00245.17247.06076.06914.03478.13938.03624.208a.17432.17432,0,0,1-.17818.17226,4.55548,4.55548,0,0,0-.82743.14307c-.23684.046-.3201.00313-.32281-.22972-.00146-.12556.004-.25126.00018-.37671-.00188-.06195.02356-.12732-.036-.186a.14044.14044,0,0,1-.0028-.127c.0857-.16719.02316-.34407.04423-.51467a.49647.49647,0,0,1-.0343-.379,1.27957,1.27957,0,0,0,.03589-.33773c-.00547-.11993-.03244-.23883-.039-.35879a1.22981,1.22981,0,0,0-.00864-.373.66527.66527,0,0,1,.01219-.38782c.00947-.07.05444-.12938.004-.21-.03884-.062-.00223-.14778-.02827-.23a.78524.78524,0,0,1-.00846-.36685,1.3758,1.3758,0,0,0-.00017-.61113c-.00288-.01378-.0107-.03451-.00458-.041.0765-.0807.03176-.18028.04463-.27051-.09016-.0533.00261-.17635-.08755-.22965a.8345.8345,0,0,1,.05653-.26393c.039-.066.05433-.14817.02855-.182-.07211-.09468-.0014-.21135-.07425-.305-.04067-.05229.02484-.16216.095-.19887a.49384.49384,0,0,1,.3214-.04144.20281.20281,0,0,1,.10422.06443,1.87307,1.87307,0,0,0,.25046.34018,1.02645,1.02645,0,0,1,.0791.12185,6.16982,6.16982,0,0,0,.80784.99838,2.32251,2.32251,0,0,1,.36683.53442,4.14156,4.14156,0,0,0,.39194.5503,2.36679,2.36679,0,0,1,.40314.51842A1.09228,1.09228,0,0,0,38.37545,72.4334Z" style="fill:#e7e7e7"/><path d="M30.62411,73.06125c.04205-.0485.09321-.02854.14007-.04065a.25737.25737,0,0,0,.19079-.11509.52931.52931,0,0,1,.2042-.20328c.08-.05662.1816-.09386.22656-.20787a1.7018,1.7018,0,0,1,.2618-.44612,1.21764,1.21764,0,0,0,.15882-.4877c-.07081-.07113-.00555-.18563-.05375-.241-.08452-.097.02288-.15637.01951-.23645a1.11574,1.11574,0,0,0-.09153-.31914,1.35044,1.35044,0,0,0-.14951-.37923,2.28081,2.28081,0,0,0-.51594-.58914,4.04594,4.04594,0,0,0-.414-.23425.96812.96812,0,0,0-.49552-.09134c-.15487.00613-.31054-.00628-.46533.001a1.67293,1.67293,0,0,1-.39426-.06717.465.465,0,0,0-.249-.01084.38051.38051,0,0,1-.188.02493c-.10516-.00546-.209-.03427-.31417-.04145-.11772-.008-.23633-.004-.35453-.00289a.336.336,0,0,0-.12688.01364.53019.53019,0,0,1-.35709.00771.08743.08743,0,0,0-.0647.00681.221.221,0,0,0-.16449.23949c.016.424-.08307.84281-.05288,1.26714a.23579.23579,0,0,1-.0091.12857.41188.41188,0,0,0-.02652.33736.81132.81132,0,0,1,.03035.273,4.03427,4.03427,0,0,1-.03942.781,2.75882,2.75882,0,0,0-.01044.48609.9286.9286,0,0,1-.04041.40482.22277.22277,0,0,0,.00151.19258c.05279.07135.00357.15736.04135.20434.06707.08337-.01168.14232-.0052.21093.03031.32154-.06672.63617-.04977.95678a1.47722,1.47722,0,0,1-.00391.24334.71.71,0,0,0,.049.26986c.00669.03436.04794.08442.07775.08766a.49691.49691,0,0,0,.258-.0113.28862.28862,0,0,1,.23029-.01943,1.67161,1.67161,0,0,0,.44961.04114.26623.26623,0,0,0,.27965-.12641c.02171-.03183.04089-.10506.02823-.11433-.08446-.06183.00831-.18129-.08321-.23449.01033-.09071-.01615-.18129.04257-.27172a.52481.52481,0,0,0,.02968-.43767.38046.38046,0,0,1-.016-.22973.898.898,0,0,0,.03793-.33927c.00455-.08843-.00406-.17778.00375-.2658.008-.09049.03326-.1794.04229-.26988.00466-.04708.01855-.06527.06512-.06085.0293.00281.0591-.0001.0886.00111.109.0045.218.00966.327.01455.02568.08536.04892.17158.078.25574a.53977.53977,0,0,0,.06312.12877,1.34694,1.34694,0,0,1,.14174.34082,1.66719,1.66719,0,0,0,.262.53313,1.09553,1.09553,0,0,1,.20507.38138,2.91325,2.91325,0,0,0,.26815.62094.22345.22345,0,0,0,.22673.12994,3.96808,3.96808,0,0,1,.50948.00186c.16387.01084.33427-.04506.49239.04269.01153.00641.03772-.01184.05634-.02026a.238.238,0,0,0,.11156-.3295,5.75216,5.75216,0,0,0-.35213-.67575.75774.75774,0,0,1-.14544-.314,1.13605,1.13605,0,0,0-.20545-.46913,5.39092,5.39092,0,0,1-.32783-.59788c-.015-.03072-.04635-.06556-.0405-.0919C30.52951,73.03739,30.60081,73.08814,30.62411,73.06125Zm-.32185-1.2257a.27252.27252,0,0,1-.1525.1065,1.85055,1.85055,0,0,1-.62247.09351,4.87519,4.87519,0,0,0-.66838-.04517c-.06621-.00315-.16046-.01929-.18826-.06332-.02955-.04686.00364-.13393.01112-.20326.00534-.049.01561-.09758.01993-.14666a1.78073,1.78073,0,0,1,.043-.53648.16215.16215,0,0,0-.02046-.16614.18871.18871,0,0,1-.01514-.12356c.00145-.0163.0451-.04649.05288-.0419a.29785.29785,0,0,0,.32121.00367c.0336-.01892.08647-.00408.13048-.0039.19183.00076.38375-.00182.57543.00368a.70814.70814,0,0,1,.60117.36885.37153.37153,0,0,1,.08419.2894A.637.637,0,0,1,30.30225,71.83555Z" style="fill:#e7e7e7"/><path d="M23.65486,74.81273a.488.488,0,0,1-.06715-.32752.46469.46469,0,0,0-.00822-.15139c-.04032-.10464-.04716-.21785-.08322-.32-.03853-.10918-.07957-.21848-.11217-.32947a1.42141,1.42141,0,0,1-.0484-.284,2.135,2.135,0,0,0-.034-.287c-.02587-.08556-.07716-.166-.09632-.24662-.02042-.086-.03227-.17835-.04993-.26814-.03658-.18582-.04465-.37643-.08766-.5615a1.5013,1.5013,0,0,1-.04182-.18142,1.33,1.33,0,0,0-.03677-.24985c-.02359-.08006-.05221-.15505-.08193-.23264a.91014.91014,0,0,1-.09237-.37847c.018-.20154-.09876-.37-.09428-.56236-.07977-.06643-.033-.172-.08111-.25529a.9432.9432,0,0,1-.04994-.26622,2.1628,2.1628,0,0,0-.05237-.26627c-.03066-.08417-.00723-.18571-.07707-.2555.0026-.25565-.115-.48976-.13273-.74282a.31162.31162,0,0,0-.129-.2112.2339.2339,0,0,0-.22292.00215c-.10541.10823-.246.193-.29635.34077a.82887.82887,0,0,1-.20816.29073.54962.54962,0,0,0-.15238.20083.73244.73244,0,0,1-.21046.335,2.92442,2.92442,0,0,0-.21974.263c-.03148.04268-.03229.11027-.0672.14776a3.31917,3.31917,0,0,1-.37546.4655c-.01511.01141-.0209.035-.03122.05291-.06874.11911-.12959.24378-.208.35617-.165.23659-.36542.44663-.52029.69173-.06016.09528-.165.16875-.20379.26975a1.896,1.896,0,0,1-.3186.46449,3.45611,3.45611,0,0,0-.43475.66237.27692.27692,0,0,1-.13355.15735.3269.3269,0,0,0-.18861.236.70071.70071,0,0,1-.15283.29053c-.03044.03014-.00952.03914.003.06487a.32887.32887,0,0,0,.11912.12929.7586.7586,0,0,0,.34976.11793,2.30391,2.30391,0,0,1,.51705.09564.25552.25552,0,0,0,.26006-.05675.93248.93248,0,0,0,.20946-.24373,2.00734,2.00734,0,0,1,.32917-.41636.0872.0872,0,0,1,.07371-.0226c.09707.03226.19091.07392.28734.10818a.53167.53167,0,0,0,.216.06119,2.11326,2.11326,0,0,1,.6705.10623c.24212.04588.48674.09921.726.16784.05533.01587.12.00432.14942.06564a.57684.57684,0,0,1,.04907.15625.96125.96125,0,0,1,.001.1548.64719.64719,0,0,1-.00064.06642.903.903,0,0,0,.13983.47343.2677.2677,0,0,0,.16993.11665c.15771.05243.32319.07034.47853.12766a.41677.41677,0,0,0,.15819.04244.48132.48132,0,0,1,.24089.06456.211.211,0,0,0,.24252-.05151A.13341.13341,0,0,0,23.65486,74.81273Zm-1.74534-2.39635c-.02712.02467-.0744.02718-.14485.04835-.04211.02859-.10732-.13107-.17972-.0246-.07427-.01357-.14879-.02594-.22266-.04147a.19819.19819,0,0,1-.07588-.02938.38423.38423,0,0,0-.263-.06079.371.371,0,0,1-.1094-.00336c-.12161-.03094-.13738-.08921-.06407-.19756.04615-.06819.07816-.14657.128-.21153.15923-.20758.32557-.40971.48516-.617a1.56463,1.56463,0,0,0,.102-.17831.16667.16667,0,0,1,.02514-.02743c.00629.01214.01841.02455.01789.03642-.00407.09305.0557.17145.04926.26975a1.00682,1.00682,0,0,0,.05411.26225.51794.51794,0,0,1,.02535.14324.82668.82668,0,0,0,.15666.53327C21.91113,72.34486,21.92338,72.40379,21.90952,72.41637Z" style="fill:#e7e7e7"/><path d="M46.27727,72.47854a1.64388,1.64388,0,0,1-.28772-.00421,2.08976,2.08976,0,0,1-.65975-.1744.13776.13776,0,0,1-.08919-.1502c.01178-.1125-.02932-.23046.04313-.3379a.12556.12556,0,0,0,.00086-.108c-.08429-.15784.02628-.29249.05469-.43242.03557-.17514.12552-.20623.30191-.15142.01941.006.038.02525.05591.024.25488-.0179.50521.04248.75755.04409a1.24245,1.24245,0,0,0,.40589-.08487.53817.53817,0,0,0,.29372-.40173.54546.54546,0,0,0,.00093-.31774.66828.66828,0,0,0-.23127-.27888.25035.25035,0,0,0-.19454-.06493.69758.69758,0,0,1-.371-.06619.37127.37127,0,0,0-.12365-.02216c-.12557-.00333-.25127-.00142-.37689-.00311a.64194.64194,0,0,1-.2714-.04156c-.081-.03682-.17884.02378-.27214-.04354-.06206-.04478-.16283-.00769-.25083-.03044-.12036-.03111-.19346-.13826-.31355-.15577-.11-.14789-.29669-.18153-.43378-.29214a.92955.92955,0,0,1-.34492-.54292,4.08472,4.08472,0,0,1-.10635-.44574.22826.22826,0,0,1,.00125-.1093.46027.46027,0,0,0,.01413-.23481c-.06049-.28352-.07453-.21149.09416-.52766.0192-.036.03191-.07542.04768-.11323a1.735,1.735,0,0,1,.68193-.75812,2.44516,2.44516,0,0,1,.71025-.323c.15212-.04412.30266-.08674.45113-.14355a.54641.54641,0,0,1,.35352.04489c.045.01371.08754.04606.13838.03816a2.92539,2.92539,0,0,1,.53575.05039.32727.32727,0,0,1,.27773.276.6482.6482,0,0,1-.069.21392.6828.6828,0,0,0-.06662.24021,1.65473,1.65473,0,0,1-.10728.41988.17342.17342,0,0,1-.2084.13458c-.14014-.01391-.29.02663-.40843-.0871a.92239.92239,0,0,0-.36975.00283c-.11653.05391-.24917-.02255-.34745.07441-.00619.00611-.045-.02822-.05978-.02216a.80059.80059,0,0,0-.18261.093.59.59,0,0,0-.16984.17228.93573.93573,0,0,0-.04679.20077.26776.26776,0,0,0,.12488.26164,1.23206,1.23206,0,0,0,.431.24034.72966.72966,0,0,0,.09724.03173,1.67522,1.67522,0,0,1,.471.04258.19834.19834,0,0,0,.22379-.03789c.13388.01844.271-.03112.40472.04263.08816.04861.20591.03041.29461.09075.08292.05641.196.02.27209.09317a.70215.70215,0,0,1,.56076.30325,2.65213,2.65213,0,0,1,.37813.41965.66259.66259,0,0,1,.14124.43055c-.01325.12832.05991.24748.04411.38116a2.23226,2.23226,0,0,0-.00283.39856c.00514.08259-.04549.15293-.04247.22523.00375.08968-.05966.12573-.09468.18495-.1052.17785-.21172.355-.31254.53533a.691.691,0,0,1-.36536.31,3.25673,3.25673,0,0,0-.50618.27683.39422.39422,0,0,1-.23346.08175.25373.25373,0,0,0-.1.02414,1.34447,1.34447,0,0,1-.26734.10095A2.64176,2.64176,0,0,1,46.27727,72.47854Z" style="fill:#e7e7e7"/><path d="M14.48312,68.48392c-.00247.119.01134.14749.12525.15354a.50521.50521,0,0,1,.22717.09582,8.39761,8.39761,0,0,0,.84118.37842.18758.18758,0,0,0,.05726.02161.60007.60007,0,0,1,.326.12877c.051.03737.12591.07347.14039.12117a.62175.62175,0,0,1-.01115.23486.82429.82429,0,0,0-.02616.12121.87437.87437,0,0,1-.13494.38846c-.02933.06872-.08745.12224-.09462.2057a.27822.27822,0,0,1-.06229.12792.18226.18226,0,0,1-.20508.09124.767.767,0,0,1-.21468-.06888,1.827,1.827,0,0,0-.47333-.25,4.82256,4.82256,0,0,1-.8166-.38264c-.05-.02615-.12407.0148-.155-.05935-.001-.00243-.05311.00681-.05488.01581-.0175.08916-.09758.15083-.10038.24816-.00174.0607-.03892.12055-.03976.18106a.43189.43189,0,0,1-.04744.18128c-.00566.01218.00544.036-.002.043-.16.151-.16893.37443-.2594.55873a1.51944,1.51944,0,0,0-.1957.58621.28969.28969,0,0,1-.38839.20068,5.11408,5.11408,0,0,1-.57989-.31376,2.07249,2.07249,0,0,0-.217-.11618.45488.45488,0,0,1-.09166-.07989.20985.20985,0,0,1,.00055-.1396,2.122,2.122,0,0,0,.17946-.54681c.01569-.0453.01645-.10674.04755-.13378.119-.10351.12248-.2621.19865-.38516.05217-.0843.00221-.196.06631-.2835.02695-.03679.01876-.10385.04951-.13246a.59777.59777,0,0,0,.13468-.30083c.04988-.163.15072-.30675.19554-.47293.02517-.09331.04822-.1872.0713-.28106.005-.02047-.0016-.05308.01018-.06123.16058-.11107.14936-.30921.23165-.45987a.827.827,0,0,0,.07039-.3023.3419.3419,0,0,1,.11515-.242.49671.49671,0,0,0,.15717-.374.50549.50549,0,0,1,.11569-.3302.83044.83044,0,0,0,.14226-.31557,3.58076,3.58076,0,0,0,.15405-.44929c.00252-.03042.03562-.071.03762-.11572.01022-.22883.17081-.259.30552-.19041a1.69661,1.69661,0,0,1,.3892.19287.44.44,0,0,0,.311.09621.41054.41054,0,0,1,.23732.07165,5.69234,5.69234,0,0,0,.50078.28865,5.82881,5.82881,0,0,0,.66348.273,1.61525,1.61525,0,0,1,.29147.151,3.8182,3.8182,0,0,0,.60628.24923.56748.56748,0,0,1,.09239.04428c.15191.08036.17171.11612.08538.25207a1.49764,1.49764,0,0,0-.1218.37155c-.00857.02626-.004.06129-.01993.07993a2.26869,2.26869,0,0,0-.2037.42612c-.0518.09363-.05333.107-.15371.06321a5.31636,5.31636,0,0,1-.77075-.28132.43431.43431,0,0,0-.1682-.073,1.12066,1.12066,0,0,1-.40984-.19182.75.75,0,0,0-.34647-.127.77469.77469,0,0,1-.32821-.1163c-.0771-.0392-.09585-.02617-.127.06205a.48625.48625,0,0,1-.05759.13087,5.57457,5.57457,0,0,0-.29809.653C14.47255,68.41882,14.48327,68.45446,14.48312,68.48392Z" style="fill:#e7e7e7"/></svg>